<svg id="Layer_1" data-name="Layer 1" xmlns="http://www.w3.org/2000/svg" viewBox="0 0 555.46 347.2"><defs><style>.cls-1{fill:#93c5d9;}</style></defs><circle class="cls-1" cx="275.04" cy="270.18" r="6.24"/><circle class="cls-1" cx="344.71" cy="270.18" r="6.24"/><circle class="cls-1" cx="414.38" cy="270.18" r="6.24"/><circle class="cls-1" cx="460.21" cy="294.66" r="6.24"/><circle class="cls-1" cx="149.62" cy="284.29" r="6.24"/><circle class="cls-1" cx="261.1" cy="284.29" r="6.24"/><circle class="cls-1" cx="275.04" cy="284.29" r="6.24"/><circle class="cls-1" cx="302.91" cy="284.29" r="6.24"/><circle class="cls-1" cx="316.84" cy="284.29" r="6.24"/><circle class="cls-1" cx="344.71" cy="284.29" r="6.24"/><circle class="cls-1" cx="358.64" cy="284.29" r="6.24"/><circle class="cls-1" cx="149.62" cy="298.4" r="6.24"/><circle class="cls-1" cx="163.56" cy="298.4" r="6.24"/><circle class="cls-1" cx="233.23" cy="298.4" r="6.24"/><circle class="cls-1" cx="247.17" cy="298.4" r="6.24"/><circle class="cls-1" cx="261.1" cy="298.4" r="6.24"/><circle class="cls-1" cx="275.04" cy="298.4" r="6.24"/><circle class="cls-1" cx="288.97" cy="298.4" r="6.24"/><circle class="cls-1" cx="302.91" cy="298.4" r="6.24"/><circle class="cls-1" cx="344.71" cy="298.4" r="6.24"/><circle class="cls-1" cx="135.69" cy="312.51" r="6.24"/><circle class="cls-1" cx="149.62" cy="312.51" r="6.24"/><circle class="cls-1" cx="163.56" cy="312.51" r="6.24"/><circle class="cls-1" cx="177.49" cy="312.51" r="6.24"/><circle class="cls-1" cx="191.43" cy="312.51" r="6.24"/><circle class="cls-1" cx="205.36" cy="312.51" r="6.24"/><circle class="cls-1" cx="219.3" cy="312.51" r="6.24"/><circle class="cls-1" cx="247.17" cy="312.51" r="6.24"/><circle class="cls-1" cx="261.1" cy="312.51" r="6.24"/><circle class="cls-1" cx="275.04" cy="312.51" r="6.24"/><circle class="cls-1" cx="302.91" cy="312.51" r="6.24"/><circle class="cls-1" cx="316.84" cy="312.51" r="6.24"/><circle class="cls-1" cx="330.78" cy="312.51" r="6.24"/><circle class="cls-1" cx="344.71" cy="312.51" r="6.24"/><circle class="cls-1" cx="149.62" cy="326.61" r="6.24"/><circle class="cls-1" cx="163.56" cy="326.61" r="6.24"/><circle class="cls-1" cx="177.49" cy="326.61" r="6.24"/><circle class="cls-1" cx="191.43" cy="326.61" r="6.24"/><circle class="cls-1" cx="205.36" cy="326.61" r="6.24"/><circle class="cls-1" cx="219.3" cy="326.61" r="6.24"/><circle class="cls-1" cx="233.23" cy="326.61" r="6.24"/><circle class="cls-1" cx="247.17" cy="326.61" r="6.24"/><circle class="cls-1" cx="261.1" cy="326.61" r="6.24"/><circle class="cls-1" cx="275.04" cy="326.61" r="6.24"/><circle class="cls-1" cx="288.97" cy="326.61" r="6.24"/><circle class="cls-1" cx="316.84" cy="326.61" r="6.24"/><circle class="cls-1" cx="330.78" cy="326.61" r="6.24"/><circle class="cls-1" cx="344.71" cy="326.61" r="6.24"/><circle class="cls-1" cx="358.64" cy="326.61" r="6.24"/><circle class="cls-1" cx="428.32" cy="326.61" r="6.24"/><circle class="cls-1" cx="380.61" cy="312.8" r="6.24"/><circle class="cls-1" cx="135.69" cy="340.72" r="6.24"/><circle class="cls-1" cx="149.62" cy="340.72" r="6.24"/><circle class="cls-1" cx="163.56" cy="340.72" r="6.24"/><circle class="cls-1" cx="177.49" cy="340.72" r="6.24"/><circle class="cls-1" cx="191.43" cy="340.72" r="6.24"/><circle class="cls-1" cx="205.36" cy="340.72" r="6.24"/><circle class="cls-1" cx="219.3" cy="340.72" r="6.24"/><circle class="cls-1" cx="233.23" cy="340.72" r="6.24"/><circle class="cls-1" cx="247.17" cy="340.72" r="6.24"/><circle class="cls-1" cx="275.04" cy="340.72" r="6.24"/><circle class="cls-1" cx="288.97" cy="340.72" r="6.24"/><circle class="cls-1" cx="302.91" cy="340.72" r="6.24"/><circle class="cls-1" cx="316.84" cy="340.72" r="6.24"/><circle class="cls-1" cx="330.78" cy="340.72" r="6.24"/><circle class="cls-1" cx="344.71" cy="340.72" r="6.24"/><circle class="cls-1" cx="358.64" cy="340.72" r="6.24"/><circle class="cls-1" cx="103.78" cy="340.96" r="6.24"/><circle class="cls-1" cx="89.85" cy="340.96" r="6.24"/><circle class="cls-1" cx="75.91" cy="340.96" r="6.24"/><circle class="cls-1" cx="61.98" cy="340.96" r="6.24"/><circle class="cls-1" cx="48.04" cy="340.96" r="6.24"/><circle class="cls-1" cx="34.11" cy="340.96" r="6.24"/><circle class="cls-1" cx="6.24" cy="340.96" r="6.24"/><circle class="cls-1" cx="89.85" cy="326.85" r="6.24"/><circle class="cls-1" cx="75.91" cy="326.85" r="6.24"/><circle class="cls-1" cx="89.85" cy="312.74" r="6.24"/><circle class="cls-1" cx="256.59" cy="6.32" r="6.24"/><circle class="cls-1" cx="270.52" cy="6.31" r="6.24"/><circle class="cls-1" cx="284.46" cy="6.31" r="6.24"/><circle class="cls-1" cx="298.39" cy="6.3" r="6.24"/><circle class="cls-1" cx="312.33" cy="6.3" r="6.24"/><circle class="cls-1" cx="326.26" cy="6.29" r="6.24"/><circle class="cls-1" cx="340.2" cy="6.29" r="6.24"/><circle class="cls-1" cx="368.07" cy="6.28" r="6.24"/><circle class="cls-1" cx="382" cy="6.27" r="6.24"/><circle class="cls-1" cx="395.94" cy="6.27" r="6.24"/><circle class="cls-1" cx="423.81" cy="6.26" r="6.24"/><circle class="cls-1" cx="437.74" cy="6.25" r="6.24"/><circle class="cls-1" cx="451.68" cy="6.24" r="6.24"/><circle class="cls-1" cx="465.61" cy="6.24" r="6.24"/><circle class="cls-1" cx="270.53" cy="20.42" r="6.24"/><circle class="cls-1" cx="284.46" cy="20.42" r="6.24"/><circle class="cls-1" cx="298.4" cy="20.41" r="6.24"/><circle class="cls-1" cx="312.33" cy="20.41" r="6.24"/><circle class="cls-1" cx="326.27" cy="20.4" r="6.24"/><circle class="cls-1" cx="340.2" cy="20.4" r="6.24"/><circle class="cls-1" cx="354.14" cy="20.39" r="6.24"/><circle class="cls-1" cx="368.07" cy="20.39" r="6.24"/><circle class="cls-1" cx="382.01" cy="20.38" r="6.24"/><circle class="cls-1" cx="395.94" cy="20.38" r="6.24"/><circle class="cls-1" cx="409.88" cy="20.37" r="6.24"/><circle class="cls-1" cx="437.75" cy="20.36" r="6.24"/><circle class="cls-1" cx="451.68" cy="20.35" r="6.24"/><circle class="cls-1" cx="465.62" cy="20.35" r="6.24"/><circle class="cls-1" cx="479.55" cy="20.34" r="6.24"/><circle class="cls-1" cx="549.22" cy="20.32" r="6.24"/><circle class="cls-1" cx="501.51" cy="6.52" r="6.24"/><circle class="cls-1" cx="256.6" cy="34.54" r="6.24"/><circle class="cls-1" cx="270.53" cy="34.53" r="6.24"/><circle class="cls-1" cx="284.47" cy="34.53" r="6.24"/><circle class="cls-1" cx="298.4" cy="34.52" r="6.24"/><circle class="cls-1" cx="312.34" cy="34.52" r="6.24"/><circle class="cls-1" cx="326.27" cy="34.51" r="6.24"/><circle class="cls-1" cx="340.21" cy="34.51" r="6.24"/><circle class="cls-1" cx="354.14" cy="34.5" r="6.24"/><circle class="cls-1" cx="368.08" cy="34.49" r="6.24"/><circle class="cls-1" cx="395.95" cy="34.48" r="6.24"/><circle class="cls-1" cx="409.88" cy="34.48" r="6.24"/><circle class="cls-1" cx="423.82" cy="34.47" r="6.24"/><circle class="cls-1" cx="437.75" cy="34.47" r="6.24"/><circle class="cls-1" cx="451.69" cy="34.46" r="6.24"/><circle class="cls-1" cx="465.62" cy="34.46" r="6.24"/><circle class="cls-1" cx="479.56" cy="34.45" r="6.24"/><circle class="cls-1" cx="284.47" cy="48.64" r="6.24"/><circle class="cls-1" cx="298.41" cy="48.63" r="6.24"/><circle class="cls-1" cx="312.34" cy="48.62" r="6.24"/><circle class="cls-1" cx="340.21" cy="48.61" r="6.24"/><circle class="cls-1" cx="354.15" cy="48.61" r="6.24"/><circle class="cls-1" cx="368.08" cy="48.6" r="6.24"/><circle class="cls-1" cx="382.02" cy="48.6" r="6.24"/><circle class="cls-1" cx="395.95" cy="48.59" r="6.24"/><circle class="cls-1" cx="409.89" cy="48.59" r="6.24"/><circle class="cls-1" cx="451.69" cy="48.57" r="6.24"/><circle class="cls-1" cx="465.63" cy="48.57" r="6.24"/><circle class="cls-1" cx="493.5" cy="48.56" r="6.24"/><circle class="cls-1" cx="521.36" cy="48.55" r="6.24"/><circle class="cls-1" cx="284.48" cy="62.74" r="6.24"/><circle class="cls-1" cx="298.42" cy="62.74" r="6.24"/><circle class="cls-1" cx="312.35" cy="62.73" r="6.24"/><circle class="cls-1" cx="326.28" cy="62.73" r="6.24"/><circle class="cls-1" cx="340.22" cy="62.72" r="6.24"/><circle class="cls-1" cx="354.15" cy="62.72" r="6.24"/><circle class="cls-1" cx="368.09" cy="62.71" r="6.24"/><circle class="cls-1" cx="395.96" cy="62.7" r="6.24"/><circle class="cls-1" cx="409.89" cy="62.7" r="6.24"/><circle class="cls-1" cx="423.83" cy="62.69" r="6.24"/><circle class="cls-1" cx="437.76" cy="62.69" r="6.24"/><circle class="cls-1" cx="451.7" cy="62.68" r="6.24"/><circle class="cls-1" cx="465.63" cy="62.68" r="6.24"/><circle class="cls-1" cx="479.57" cy="62.67" r="6.24"/><circle class="cls-1" cx="493.5" cy="62.67" r="6.24"/><circle class="cls-1" cx="507.44" cy="62.66" r="6.24"/><circle class="cls-1" cx="521.37" cy="62.65" r="6.24"/><circle class="cls-1" cx="256.62" cy="76.86" r="6.24"/><circle class="cls-1" cx="270.55" cy="76.86" r="6.24"/><circle class="cls-1" cx="284.49" cy="76.85" r="6.24"/><circle class="cls-1" cx="312.36" cy="76.84" r="6.24"/><circle class="cls-1" cx="326.29" cy="76.84" r="6.24"/><circle class="cls-1" cx="340.22" cy="76.83" r="6.24"/><circle class="cls-1" cx="354.16" cy="76.83" r="6.24"/><circle class="cls-1" cx="368.09" cy="76.82" r="6.24"/><circle class="cls-1" cx="382.03" cy="76.82" r="6.24"/><circle class="cls-1" cx="409.9" cy="76.81" r="6.24"/><circle class="cls-1" cx="437.77" cy="76.8" r="6.24"/><circle class="cls-1" cx="493.51" cy="76.77" r="6.24"/><circle class="cls-1" cx="507.44" cy="76.77" r="6.24"/><circle class="cls-1" cx="521.38" cy="76.76" r="6.24"/><circle class="cls-1" cx="256.62" cy="90.97" r="6.24"/><circle class="cls-1" cx="284.49" cy="90.96" r="6.24"/><circle class="cls-1" cx="326.3" cy="90.95" r="6.24"/><circle class="cls-1" cx="340.23" cy="90.94" r="6.24"/><circle class="cls-1" cx="423.84" cy="90.91" r="6.24"/><circle class="cls-1" cx="437.77" cy="90.9" r="6.24"/><circle class="cls-1" cx="256.63" cy="105.08" r="6.24"/><circle class="cls-1" cx="326.3" cy="105.06" r="6.24"/><circle class="cls-1" cx="224.69" cy="34.79" r="6.24"/><circle class="cls-1" cx="210.76" cy="34.79" r="6.24"/><circle class="cls-1" cx="196.82" cy="34.8" r="6.24"/><circle class="cls-1" cx="182.89" cy="34.8" r="6.24"/><circle class="cls-1" cx="168.95" cy="34.81" r="6.24"/><circle class="cls-1" cx="155.02" cy="34.81" r="6.24"/><circle class="cls-1" cx="127.15" cy="34.82" r="6.24"/><circle class="cls-1" cx="210.75" cy="20.68" r="6.24"/><circle class="cls-1" cx="196.82" cy="20.69" r="6.24"/><circle class="cls-1" cx="210.75" cy="6.57" r="6.24"/></svg>