<svg id="Layer_1" data-name="Layer 1" xmlns="http://www.w3.org/2000/svg" viewBox="0 0 1340.75 231.9"><defs><style>.cls-1{fill:#0e063f;}</style></defs><path class="cls-1" d="M9.88,19.76a9.88,9.88,0,1,1,9.88-9.88A9.89,9.89,0,0,1,9.88,19.76ZM9.88,1a8.88,8.88,0,1,0,8.88,8.88A8.89,8.89,0,0,0,9.88,1Z"/><path class="cls-1" d="M51.78,19.76a9.88,9.88,0,1,1,9.89-9.88A9.89,9.89,0,0,1,51.78,19.76ZM51.78,1a8.88,8.88,0,1,0,8.89,8.88A8.89,8.89,0,0,0,51.78,1Z"/><path class="cls-1" d="M72.74,19.76a9.88,9.88,0,1,1,9.88-9.88A9.9,9.9,0,0,1,72.74,19.76ZM72.74,1a8.88,8.88,0,1,0,8.88,8.88A8.89,8.89,0,0,0,72.74,1Z"/><path class="cls-1" d="M93.69,19.76a9.88,9.88,0,1,1,9.88-9.88A9.89,9.89,0,0,1,93.69,19.76ZM93.69,1a8.88,8.88,0,1,0,8.88,8.88A8.89,8.89,0,0,0,93.69,1Z"/><path class="cls-1" d="M114.64,19.76a9.88,9.88,0,1,1,9.88-9.88A9.89,9.89,0,0,1,114.64,19.76Zm0-18.76a8.88,8.88,0,1,0,8.88,8.88A8.89,8.89,0,0,0,114.64,1Z"/><path class="cls-1" d="M135.59,19.76a9.88,9.88,0,1,1,9.88-9.88A9.89,9.89,0,0,1,135.59,19.76Zm0-18.76a8.88,8.88,0,1,0,8.88,8.88A8.89,8.89,0,0,0,135.59,1Z"/><path class="cls-1" d="M156.54,19.76a9.88,9.88,0,1,1,9.88-9.88A9.89,9.89,0,0,1,156.54,19.76Zm0-18.76a8.88,8.88,0,1,0,8.88,8.88A8.89,8.89,0,0,0,156.54,1Z"/><path class="cls-1" d="M177.49,19.76a9.88,9.88,0,1,1,9.89-9.88A9.89,9.89,0,0,1,177.49,19.76Zm0-18.76a8.88,8.88,0,1,0,8.89,8.88A8.89,8.89,0,0,0,177.49,1Z"/><path class="cls-1" d="M219.4,19.76a9.88,9.88,0,1,1,9.88-9.88A9.89,9.89,0,0,1,219.4,19.76ZM219.4,1a8.88,8.88,0,1,0,8.88,8.88A8.89,8.89,0,0,0,219.4,1Z"/><path class="cls-1" d="M303.2,19.76a9.88,9.88,0,1,1,9.89-9.88A9.89,9.89,0,0,1,303.2,19.76ZM303.2,1a8.88,8.88,0,1,0,8.89,8.88A8.89,8.89,0,0,0,303.2,1Z"/><path class="cls-1" d="M324.16,19.76A9.88,9.88,0,1,1,334,9.88,9.9,9.9,0,0,1,324.16,19.76Zm0-18.76A8.88,8.88,0,1,0,333,9.88,8.89,8.89,0,0,0,324.16,1Z"/><path class="cls-1" d="M366.06,19.76a9.88,9.88,0,1,1,9.88-9.88A9.89,9.89,0,0,1,366.06,19.76Zm0-18.76a8.88,8.88,0,1,0,8.88,8.88A8.89,8.89,0,0,0,366.06,1Z"/><path class="cls-1" d="M387,19.76a9.88,9.88,0,1,1,9.88-9.88A9.89,9.89,0,0,1,387,19.76ZM387,1a8.88,8.88,0,1,0,8.88,8.88A8.89,8.89,0,0,0,387,1Z"/><path class="cls-1" d="M428.91,19.76a9.88,9.88,0,1,1,9.89-9.88A9.89,9.89,0,0,1,428.91,19.76Zm0-18.76a8.88,8.88,0,1,0,8.89,8.88A8.89,8.89,0,0,0,428.91,1Z"/><path class="cls-1" d="M449.87,19.76a9.88,9.88,0,1,1,9.88-9.88A9.9,9.9,0,0,1,449.87,19.76Zm0-18.76a8.88,8.88,0,1,0,8.88,8.88A8.89,8.89,0,0,0,449.87,1Z"/><path class="cls-1" d="M9.88,41a9.89,9.89,0,1,1,9.88-9.88A9.89,9.89,0,0,1,9.88,41Zm0-18.77a8.89,8.89,0,1,0,8.88,8.89A8.89,8.89,0,0,0,9.88,22.21Z"/><path class="cls-1" d="M30.83,41a9.89,9.89,0,1,1,9.88-9.88A9.89,9.89,0,0,1,30.83,41Zm0-18.77a8.89,8.89,0,1,0,8.88,8.89A8.9,8.9,0,0,0,30.83,22.21Z"/><path class="cls-1" d="M51.78,41a9.89,9.89,0,1,1,9.89-9.88A9.9,9.9,0,0,1,51.78,41Zm0-18.77a8.89,8.89,0,1,0,8.89,8.89A8.9,8.9,0,0,0,51.78,22.21Z"/><path class="cls-1" d="M72.74,41a9.89,9.89,0,1,1,9.88-9.88A9.9,9.9,0,0,1,72.74,41Zm0-18.77a8.89,8.89,0,1,0,8.88,8.89A8.9,8.9,0,0,0,72.74,22.21Z"/><path class="cls-1" d="M93.69,41a9.89,9.89,0,1,1,9.88-9.88A9.89,9.89,0,0,1,93.69,41Zm0-18.77a8.89,8.89,0,1,0,8.88,8.89A8.89,8.89,0,0,0,93.69,22.21Z"/><path class="cls-1" d="M114.64,41a9.89,9.89,0,1,1,9.88-9.88A9.89,9.89,0,0,1,114.64,41Zm0-18.77a8.89,8.89,0,1,0,8.88,8.89A8.89,8.89,0,0,0,114.64,22.21Z"/><path class="cls-1" d="M135.59,41a9.89,9.89,0,1,1,9.88-9.88A9.89,9.89,0,0,1,135.59,41Zm0-18.77a8.89,8.89,0,1,0,8.88,8.89A8.89,8.89,0,0,0,135.59,22.21Z"/><path class="cls-1" d="M156.54,41a9.89,9.89,0,1,1,9.88-9.88A9.89,9.89,0,0,1,156.54,41Zm0-18.77a8.89,8.89,0,1,0,8.88,8.89A8.9,8.9,0,0,0,156.54,22.21Z"/><path class="cls-1" d="M177.49,41a9.89,9.89,0,1,1,9.89-9.88A9.9,9.9,0,0,1,177.49,41Zm0-18.77a8.89,8.89,0,1,0,8.89,8.89A8.9,8.9,0,0,0,177.49,22.21Z"/><path class="cls-1" d="M198.45,41a9.89,9.89,0,1,1,9.88-9.88A9.9,9.9,0,0,1,198.45,41Zm0-18.77a8.89,8.89,0,1,0,8.88,8.89A8.9,8.9,0,0,0,198.45,22.21Z"/><path class="cls-1" d="M219.4,41a9.89,9.89,0,1,1,9.88-9.88A9.89,9.89,0,0,1,219.4,41Zm0-18.77a8.89,8.89,0,1,0,8.88,8.89A8.89,8.89,0,0,0,219.4,22.21Z"/><path class="cls-1" d="M261.3,41a9.89,9.89,0,1,1,9.88-9.88A9.89,9.89,0,0,1,261.3,41Zm0-18.77a8.89,8.89,0,1,0,8.88,8.89A8.89,8.89,0,0,0,261.3,22.21Z"/><path class="cls-1" d="M282.25,41a9.89,9.89,0,1,1,9.88-9.88A9.89,9.89,0,0,1,282.25,41Zm0-18.77a8.89,8.89,0,1,0,8.88,8.89A8.89,8.89,0,0,0,282.25,22.21Z"/><path class="cls-1" d="M303.2,41a9.89,9.89,0,1,1,9.89-9.88A9.9,9.9,0,0,1,303.2,41Zm0-18.77a8.89,8.89,0,1,0,8.89,8.89A8.9,8.9,0,0,0,303.2,22.21Z"/><path class="cls-1" d="M324.16,41A9.89,9.89,0,1,1,334,31.1,9.9,9.9,0,0,1,324.16,41Zm0-18.77A8.89,8.89,0,1,0,333,31.1,8.9,8.9,0,0,0,324.16,22.21Z"/><path class="cls-1" d="M345.11,41A9.89,9.89,0,1,1,355,31.1,9.89,9.89,0,0,1,345.11,41Zm0-18.77A8.89,8.89,0,1,0,354,31.1,8.89,8.89,0,0,0,345.11,22.21Z"/><path class="cls-1" d="M9.88,62.19a9.88,9.88,0,1,1,9.88-9.88A9.89,9.89,0,0,1,9.88,62.19Zm0-18.76a8.88,8.88,0,1,0,8.88,8.88A8.89,8.89,0,0,0,9.88,43.43Z"/><path class="cls-1" d="M30.83,62.19a9.88,9.88,0,1,1,9.88-9.88A9.89,9.89,0,0,1,30.83,62.19Zm0-18.76a8.88,8.88,0,1,0,8.88,8.88A8.89,8.89,0,0,0,30.83,43.43Z"/><path class="cls-1" d="M51.78,62.19a9.88,9.88,0,1,1,9.89-9.88A9.89,9.89,0,0,1,51.78,62.19Zm0-18.76a8.88,8.88,0,1,0,8.89,8.88A8.89,8.89,0,0,0,51.78,43.43Z"/><path class="cls-1" d="M72.74,62.19a9.88,9.88,0,1,1,9.88-9.88A9.9,9.9,0,0,1,72.74,62.19Zm0-18.76a8.88,8.88,0,1,0,8.88,8.88A8.89,8.89,0,0,0,72.74,43.43Z"/><path class="cls-1" d="M114.64,62.19a9.88,9.88,0,1,1,9.88-9.88A9.89,9.89,0,0,1,114.64,62.19Zm0-18.76a8.88,8.88,0,1,0,8.88,8.88A8.89,8.89,0,0,0,114.64,43.43Z"/><path class="cls-1" d="M135.59,62.19a9.88,9.88,0,1,1,9.88-9.88A9.89,9.89,0,0,1,135.59,62.19Zm0-18.76a8.88,8.88,0,1,0,8.88,8.88A8.89,8.89,0,0,0,135.59,43.43Z"/><path class="cls-1" d="M156.54,62.19a9.88,9.88,0,1,1,9.88-9.88A9.89,9.89,0,0,1,156.54,62.19Zm0-18.76a8.88,8.88,0,1,0,8.88,8.88A8.89,8.89,0,0,0,156.54,43.43Z"/><path class="cls-1" d="M177.49,62.19a9.88,9.88,0,1,1,9.89-9.88A9.89,9.89,0,0,1,177.49,62.19Zm0-18.76a8.88,8.88,0,1,0,8.89,8.88A8.89,8.89,0,0,0,177.49,43.43Z"/><path class="cls-1" d="M198.45,62.19a9.88,9.88,0,1,1,9.88-9.88A9.9,9.9,0,0,1,198.45,62.19Zm0-18.76a8.88,8.88,0,1,0,8.88,8.88A8.89,8.89,0,0,0,198.45,43.43Z"/><path class="cls-1" d="M219.4,62.19a9.88,9.88,0,1,1,9.88-9.88A9.89,9.89,0,0,1,219.4,62.19Zm0-18.76a8.88,8.88,0,1,0,8.88,8.88A8.89,8.89,0,0,0,219.4,43.43Z"/><path class="cls-1" d="M240.35,62.19a9.88,9.88,0,1,1,9.88-9.88A9.89,9.89,0,0,1,240.35,62.19Zm0-18.76a8.88,8.88,0,1,0,8.88,8.88A8.89,8.89,0,0,0,240.35,43.43Z"/><path class="cls-1" d="M261.3,62.19a9.88,9.88,0,1,1,9.88-9.88A9.89,9.89,0,0,1,261.3,62.19Zm0-18.76a8.88,8.88,0,1,0,8.88,8.88A8.89,8.89,0,0,0,261.3,43.43Z"/><path class="cls-1" d="M324.16,62.19A9.88,9.88,0,1,1,334,52.31,9.9,9.9,0,0,1,324.16,62.19Zm0-18.76A8.88,8.88,0,1,0,333,52.31,8.89,8.89,0,0,0,324.16,43.43Z"/><path class="cls-1" d="M9.88,83.41a9.89,9.89,0,1,1,9.88-9.89A9.9,9.9,0,0,1,9.88,83.41Zm0-18.77a8.89,8.89,0,1,0,8.88,8.88A8.89,8.89,0,0,0,9.88,64.64Z"/><path class="cls-1" d="M30.83,83.41a9.89,9.89,0,1,1,9.88-9.89A9.9,9.9,0,0,1,30.83,83.41Zm0-18.77a8.89,8.89,0,1,0,8.88,8.88A8.9,8.9,0,0,0,30.83,64.64Z"/><path class="cls-1" d="M51.78,83.41a9.89,9.89,0,1,1,9.89-9.89A9.9,9.9,0,0,1,51.78,83.41Zm0-18.77a8.89,8.89,0,1,0,8.89,8.88A8.9,8.9,0,0,0,51.78,64.64Z"/><path class="cls-1" d="M72.74,83.41a9.89,9.89,0,1,1,9.88-9.89A9.91,9.91,0,0,1,72.74,83.41Zm0-18.77a8.89,8.89,0,1,0,8.88,8.88A8.9,8.9,0,0,0,72.74,64.64Z"/><path class="cls-1" d="M93.69,83.41a9.89,9.89,0,1,1,9.88-9.89A9.9,9.9,0,0,1,93.69,83.41Zm0-18.77a8.89,8.89,0,1,0,8.88,8.88A8.89,8.89,0,0,0,93.69,64.64Z"/><path class="cls-1" d="M114.64,83.41a9.89,9.89,0,1,1,9.88-9.89A9.9,9.9,0,0,1,114.64,83.41Zm0-18.77a8.89,8.89,0,1,0,8.88,8.88A8.89,8.89,0,0,0,114.64,64.64Z"/><path class="cls-1" d="M135.59,83.41a9.89,9.89,0,1,1,9.88-9.89A9.9,9.9,0,0,1,135.59,83.41Zm0-18.77a8.89,8.89,0,1,0,8.88,8.88A8.89,8.89,0,0,0,135.59,64.64Z"/><path class="cls-1" d="M177.49,83.41a9.89,9.89,0,1,1,9.89-9.89A9.9,9.9,0,0,1,177.49,83.41Zm0-18.77a8.89,8.89,0,1,0,8.89,8.88A8.9,8.9,0,0,0,177.49,64.64Z"/><path class="cls-1" d="M198.45,83.41a9.89,9.89,0,1,1,9.88-9.89A9.91,9.91,0,0,1,198.45,83.41Zm0-18.77a8.89,8.89,0,1,0,8.88,8.88A8.9,8.9,0,0,0,198.45,64.64Z"/><path class="cls-1" d="M219.4,83.41a9.89,9.89,0,1,1,9.88-9.89A9.9,9.9,0,0,1,219.4,83.41Zm0-18.77a8.89,8.89,0,1,0,8.88,8.88A8.89,8.89,0,0,0,219.4,64.64Z"/><path class="cls-1" d="M240.35,83.41a9.89,9.89,0,1,1,9.88-9.89A9.9,9.9,0,0,1,240.35,83.41Zm0-18.77a8.89,8.89,0,1,0,8.88,8.88A8.89,8.89,0,0,0,240.35,64.64Z"/><path class="cls-1" d="M261.3,83.41a9.89,9.89,0,1,1,9.88-9.89A9.9,9.9,0,0,1,261.3,83.41Zm0-18.77a8.89,8.89,0,1,0,8.88,8.88A8.89,8.89,0,0,0,261.3,64.64Z"/><path class="cls-1" d="M282.25,83.41a9.89,9.89,0,1,1,9.88-9.89A9.9,9.9,0,0,1,282.25,83.41Zm0-18.77a8.89,8.89,0,1,0,8.88,8.88A8.89,8.89,0,0,0,282.25,64.64Z"/><path class="cls-1" d="M303.2,83.41a9.89,9.89,0,1,1,9.89-9.89A9.9,9.9,0,0,1,303.2,83.41Zm0-18.77a8.89,8.89,0,1,0,8.89,8.88A8.9,8.9,0,0,0,303.2,64.64Z"/><path class="cls-1" d="M324.16,83.41A9.89,9.89,0,1,1,334,73.52,9.91,9.91,0,0,1,324.16,83.41Zm0-18.77A8.89,8.89,0,1,0,333,73.52,8.9,8.9,0,0,0,324.16,64.64Z"/><path class="cls-1" d="M30.83,104.62a9.88,9.88,0,1,1,9.88-9.88A9.89,9.89,0,0,1,30.83,104.62Zm0-18.76a8.88,8.88,0,1,0,8.88,8.88A8.89,8.89,0,0,0,30.83,85.86Z"/><path class="cls-1" d="M51.78,104.62a9.88,9.88,0,1,1,9.89-9.88A9.89,9.89,0,0,1,51.78,104.62Zm0-18.76a8.88,8.88,0,1,0,8.89,8.88A8.89,8.89,0,0,0,51.78,85.86Z"/><path class="cls-1" d="M72.74,104.62a9.88,9.88,0,1,1,9.88-9.88A9.9,9.9,0,0,1,72.74,104.62Zm0-18.76a8.88,8.88,0,1,0,8.88,8.88A8.89,8.89,0,0,0,72.74,85.86Z"/><path class="cls-1" d="M93.69,104.62a9.88,9.88,0,1,1,9.88-9.88A9.89,9.89,0,0,1,93.69,104.62Zm0-18.76a8.88,8.88,0,1,0,8.88,8.88A8.89,8.89,0,0,0,93.69,85.86Z"/><path class="cls-1" d="M114.64,104.62a9.88,9.88,0,1,1,9.88-9.88A9.89,9.89,0,0,1,114.64,104.62Zm0-18.76a8.88,8.88,0,1,0,8.88,8.88A8.89,8.89,0,0,0,114.64,85.86Z"/><path class="cls-1" d="M135.59,104.62a9.88,9.88,0,1,1,9.88-9.88A9.89,9.89,0,0,1,135.59,104.62Zm0-18.76a8.88,8.88,0,1,0,8.88,8.88A8.89,8.89,0,0,0,135.59,85.86Z"/><path class="cls-1" d="M156.54,104.62a9.88,9.88,0,1,1,9.88-9.88A9.89,9.89,0,0,1,156.54,104.62Zm0-18.76a8.88,8.88,0,1,0,8.88,8.88A8.89,8.89,0,0,0,156.54,85.86Z"/><path class="cls-1" d="M177.49,104.62a9.88,9.88,0,1,1,9.89-9.88A9.89,9.89,0,0,1,177.49,104.62Zm0-18.76a8.88,8.88,0,1,0,8.89,8.88A8.89,8.89,0,0,0,177.49,85.86Z"/><path class="cls-1" d="M198.45,104.62a9.88,9.88,0,1,1,9.88-9.88A9.9,9.9,0,0,1,198.45,104.62Zm0-18.76a8.88,8.88,0,1,0,8.88,8.88A8.89,8.89,0,0,0,198.45,85.86Z"/><path class="cls-1" d="M219.4,104.62a9.88,9.88,0,1,1,9.88-9.88A9.89,9.89,0,0,1,219.4,104.62Zm0-18.76a8.88,8.88,0,1,0,8.88,8.88A8.89,8.89,0,0,0,219.4,85.86Z"/><path class="cls-1" d="M240.35,104.62a9.88,9.88,0,1,1,9.88-9.88A9.89,9.89,0,0,1,240.35,104.62Zm0-18.76a8.88,8.88,0,1,0,8.88,8.88A8.89,8.89,0,0,0,240.35,85.86Z"/><path class="cls-1" d="M282.25,104.62a9.88,9.88,0,1,1,9.88-9.88A9.89,9.89,0,0,1,282.25,104.62Zm0-18.76a8.88,8.88,0,1,0,8.88,8.88A8.89,8.89,0,0,0,282.25,85.86Z"/><path class="cls-1" d="M303.2,104.62a9.88,9.88,0,1,1,9.89-9.88A9.89,9.89,0,0,1,303.2,104.62Zm0-18.76a8.88,8.88,0,1,0,8.89,8.88A8.89,8.89,0,0,0,303.2,85.86Z"/><path class="cls-1" d="M324.16,104.62A9.88,9.88,0,1,1,334,94.74,9.9,9.9,0,0,1,324.16,104.62Zm0-18.76A8.88,8.88,0,1,0,333,94.74,8.89,8.89,0,0,0,324.16,85.86Z"/><path class="cls-1" d="M345.11,104.62A9.88,9.88,0,1,1,355,94.74,9.89,9.89,0,0,1,345.11,104.62Zm0-18.76A8.88,8.88,0,1,0,354,94.74,8.89,8.89,0,0,0,345.11,85.86Z"/><path class="cls-1" d="M449.87,104.62a9.88,9.88,0,1,1,9.88-9.88A9.9,9.9,0,0,1,449.87,104.62Zm0-18.76a8.88,8.88,0,1,0,8.88,8.88A8.89,8.89,0,0,0,449.87,85.86Z"/><path class="cls-1" d="M9.88,125.83A9.88,9.88,0,1,1,19.76,116,9.89,9.89,0,0,1,9.88,125.83Zm0-18.76A8.88,8.88,0,1,0,18.76,116,8.89,8.89,0,0,0,9.88,107.07Z"/><path class="cls-1" d="M30.83,125.83A9.88,9.88,0,1,1,40.71,116,9.89,9.89,0,0,1,30.83,125.83Zm0-18.76A8.88,8.88,0,1,0,39.71,116,8.89,8.89,0,0,0,30.83,107.07Z"/><path class="cls-1" d="M51.78,125.83A9.88,9.88,0,1,1,61.67,116,9.89,9.89,0,0,1,51.78,125.83Zm0-18.76A8.88,8.88,0,1,0,60.67,116,8.89,8.89,0,0,0,51.78,107.07Z"/><path class="cls-1" d="M72.74,125.83A9.88,9.88,0,1,1,82.62,116,9.9,9.9,0,0,1,72.74,125.83Zm0-18.76A8.88,8.88,0,1,0,81.62,116,8.89,8.89,0,0,0,72.74,107.07Z"/><path class="cls-1" d="M93.69,125.83a9.88,9.88,0,1,1,9.88-9.88A9.89,9.89,0,0,1,93.69,125.83Zm0-18.76a8.88,8.88,0,1,0,8.88,8.88A8.89,8.89,0,0,0,93.69,107.07Z"/><path class="cls-1" d="M114.64,125.83a9.88,9.88,0,1,1,9.88-9.88A9.89,9.89,0,0,1,114.64,125.83Zm0-18.76a8.88,8.88,0,1,0,8.88,8.88A8.89,8.89,0,0,0,114.64,107.07Z"/><path class="cls-1" d="M135.59,125.83a9.88,9.88,0,1,1,9.88-9.88A9.89,9.89,0,0,1,135.59,125.83Zm0-18.76a8.88,8.88,0,1,0,8.88,8.88A8.89,8.89,0,0,0,135.59,107.07Z"/><path class="cls-1" d="M156.54,125.83a9.88,9.88,0,1,1,9.88-9.88A9.89,9.89,0,0,1,156.54,125.83Zm0-18.76a8.88,8.88,0,1,0,8.88,8.88A8.89,8.89,0,0,0,156.54,107.07Z"/><path class="cls-1" d="M177.49,125.83a9.88,9.88,0,1,1,9.89-9.88A9.89,9.89,0,0,1,177.49,125.83Zm0-18.76a8.88,8.88,0,1,0,8.89,8.88A8.89,8.89,0,0,0,177.49,107.07Z"/><path class="cls-1" d="M219.4,125.83a9.88,9.88,0,1,1,9.88-9.88A9.89,9.89,0,0,1,219.4,125.83Zm0-18.76a8.88,8.88,0,1,0,8.88,8.88A8.89,8.89,0,0,0,219.4,107.07Z"/><path class="cls-1" d="M240.35,125.83a9.88,9.88,0,1,1,9.88-9.88A9.89,9.89,0,0,1,240.35,125.83Zm0-18.76a8.88,8.88,0,1,0,8.88,8.88A8.89,8.89,0,0,0,240.35,107.07Z"/><path class="cls-1" d="M261.3,125.83a9.88,9.88,0,1,1,9.88-9.88A9.89,9.89,0,0,1,261.3,125.83Zm0-18.76a8.88,8.88,0,1,0,8.88,8.88A8.89,8.89,0,0,0,261.3,107.07Z"/><path class="cls-1" d="M282.25,125.83a9.88,9.88,0,1,1,9.88-9.88A9.89,9.89,0,0,1,282.25,125.83Zm0-18.76a8.88,8.88,0,1,0,8.88,8.88A8.89,8.89,0,0,0,282.25,107.07Z"/><path class="cls-1" d="M303.2,125.83a9.88,9.88,0,1,1,9.89-9.88A9.89,9.89,0,0,1,303.2,125.83Zm0-18.76a8.88,8.88,0,1,0,8.89,8.88A8.89,8.89,0,0,0,303.2,107.07Z"/><path class="cls-1" d="M324.16,125.83A9.88,9.88,0,1,1,334,116,9.9,9.9,0,0,1,324.16,125.83Zm0-18.76A8.88,8.88,0,1,0,333,116,8.89,8.89,0,0,0,324.16,107.07Z"/><path class="cls-1" d="M345.11,125.83A9.88,9.88,0,1,1,355,116,9.89,9.89,0,0,1,345.11,125.83Zm0-18.76A8.88,8.88,0,1,0,354,116,8.89,8.89,0,0,0,345.11,107.07Z"/><path class="cls-1" d="M9.88,147.05a9.89,9.89,0,1,1,9.88-9.88A9.89,9.89,0,0,1,9.88,147.05Zm0-18.77a8.89,8.89,0,1,0,8.88,8.89A8.89,8.89,0,0,0,9.88,128.28Z"/><path class="cls-1" d="M30.83,147.05a9.89,9.89,0,1,1,9.88-9.88A9.89,9.89,0,0,1,30.83,147.05Zm0-18.77a8.89,8.89,0,1,0,8.88,8.89A8.9,8.9,0,0,0,30.83,128.28Z"/><path class="cls-1" d="M51.78,147.05a9.89,9.89,0,1,1,9.89-9.88A9.9,9.9,0,0,1,51.78,147.05Zm0-18.77a8.89,8.89,0,1,0,8.89,8.89A8.9,8.9,0,0,0,51.78,128.28Z"/><path class="cls-1" d="M72.74,147.05a9.89,9.89,0,1,1,9.88-9.88A9.9,9.9,0,0,1,72.74,147.05Zm0-18.77a8.89,8.89,0,1,0,8.88,8.89A8.9,8.9,0,0,0,72.74,128.28Z"/><path class="cls-1" d="M93.69,147.05a9.89,9.89,0,1,1,9.88-9.88A9.89,9.89,0,0,1,93.69,147.05Zm0-18.77a8.89,8.89,0,1,0,8.88,8.89A8.89,8.89,0,0,0,93.69,128.28Z"/><path class="cls-1" d="M135.59,147.05a9.89,9.89,0,1,1,9.88-9.88A9.89,9.89,0,0,1,135.59,147.05Zm0-18.77a8.89,8.89,0,1,0,8.88,8.89A8.89,8.89,0,0,0,135.59,128.28Z"/><path class="cls-1" d="M156.54,147.05a9.89,9.89,0,1,1,9.88-9.88A9.89,9.89,0,0,1,156.54,147.05Zm0-18.77a8.89,8.89,0,1,0,8.88,8.89A8.9,8.9,0,0,0,156.54,128.28Z"/><path class="cls-1" d="M177.49,147.05a9.89,9.89,0,1,1,9.89-9.88A9.9,9.9,0,0,1,177.49,147.05Zm0-18.77a8.89,8.89,0,1,0,8.89,8.89A8.9,8.9,0,0,0,177.49,128.28Z"/><path class="cls-1" d="M198.45,147.05a9.89,9.89,0,1,1,9.88-9.88A9.9,9.9,0,0,1,198.45,147.05Zm0-18.77a8.89,8.89,0,1,0,8.88,8.89A8.9,8.9,0,0,0,198.45,128.28Z"/><path class="cls-1" d="M219.4,147.05a9.89,9.89,0,1,1,9.88-9.88A9.89,9.89,0,0,1,219.4,147.05Zm0-18.77a8.89,8.89,0,1,0,8.88,8.89A8.89,8.89,0,0,0,219.4,128.28Z"/><path class="cls-1" d="M240.35,147.05a9.89,9.89,0,1,1,9.88-9.88A9.89,9.89,0,0,1,240.35,147.05Zm0-18.77a8.89,8.89,0,1,0,8.88,8.89A8.89,8.89,0,0,0,240.35,128.28Z"/><path class="cls-1" d="M303.2,147.05a9.89,9.89,0,1,1,9.89-9.88A9.9,9.9,0,0,1,303.2,147.05Zm0-18.77a8.89,8.89,0,1,0,8.89,8.89A8.9,8.9,0,0,0,303.2,128.28Z"/><path class="cls-1" d="M324.16,147.05a9.89,9.89,0,1,1,9.88-9.88A9.9,9.9,0,0,1,324.16,147.05Zm0-18.77a8.89,8.89,0,1,0,8.88,8.89A8.9,8.9,0,0,0,324.16,128.28Z"/><path class="cls-1" d="M366.06,147.05a9.89,9.89,0,1,1,9.88-9.88A9.89,9.89,0,0,1,366.06,147.05Zm0-18.77a8.89,8.89,0,1,0,8.88,8.89A8.89,8.89,0,0,0,366.06,128.28Z"/><path class="cls-1" d="M408,147.05a9.89,9.89,0,1,1,9.88-9.88A9.89,9.89,0,0,1,408,147.05Zm0-18.77a8.89,8.89,0,1,0,8.88,8.89A8.89,8.89,0,0,0,408,128.28Z"/><path class="cls-1" d="M9.88,168.26a9.88,9.88,0,1,1,9.88-9.88A9.89,9.89,0,0,1,9.88,168.26Zm0-18.76a8.88,8.88,0,1,0,8.88,8.88A8.89,8.89,0,0,0,9.88,149.5Z"/><path class="cls-1" d="M51.78,168.26a9.88,9.88,0,1,1,9.89-9.88A9.89,9.89,0,0,1,51.78,168.26Zm0-18.76a8.88,8.88,0,1,0,8.89,8.88A8.89,8.89,0,0,0,51.78,149.5Z"/><path class="cls-1" d="M72.74,168.26a9.88,9.88,0,1,1,9.88-9.88A9.9,9.9,0,0,1,72.74,168.26Zm0-18.76a8.88,8.88,0,1,0,8.88,8.88A8.89,8.89,0,0,0,72.74,149.5Z"/><path class="cls-1" d="M93.69,168.26a9.88,9.88,0,1,1,9.88-9.88A9.89,9.89,0,0,1,93.69,168.26Zm0-18.76a8.88,8.88,0,1,0,8.88,8.88A8.89,8.89,0,0,0,93.69,149.5Z"/><path class="cls-1" d="M114.64,168.26a9.88,9.88,0,1,1,9.88-9.88A9.89,9.89,0,0,1,114.64,168.26Zm0-18.76a8.88,8.88,0,1,0,8.88,8.88A8.89,8.89,0,0,0,114.64,149.5Z"/><path class="cls-1" d="M135.59,168.26a9.88,9.88,0,1,1,9.88-9.88A9.89,9.89,0,0,1,135.59,168.26Zm0-18.76a8.88,8.88,0,1,0,8.88,8.88A8.89,8.89,0,0,0,135.59,149.5Z"/><path class="cls-1" d="M156.54,168.26a9.88,9.88,0,1,1,9.88-9.88A9.89,9.89,0,0,1,156.54,168.26Zm0-18.76a8.88,8.88,0,1,0,8.88,8.88A8.89,8.89,0,0,0,156.54,149.5Z"/><path class="cls-1" d="M177.49,168.26a9.88,9.88,0,1,1,9.89-9.88A9.89,9.89,0,0,1,177.49,168.26Zm0-18.76a8.88,8.88,0,1,0,8.89,8.88A8.89,8.89,0,0,0,177.49,149.5Z"/><path class="cls-1" d="M219.4,168.26a9.88,9.88,0,1,1,9.88-9.88A9.89,9.89,0,0,1,219.4,168.26Zm0-18.76a8.88,8.88,0,1,0,8.88,8.88A8.89,8.89,0,0,0,219.4,149.5Z"/><path class="cls-1" d="M240.35,168.26a9.88,9.88,0,1,1,9.88-9.88A9.89,9.89,0,0,1,240.35,168.26Zm0-18.76a8.88,8.88,0,1,0,8.88,8.88A8.89,8.89,0,0,0,240.35,149.5Z"/><path class="cls-1" d="M261.3,168.26a9.88,9.88,0,1,1,9.88-9.88A9.89,9.89,0,0,1,261.3,168.26Zm0-18.76a8.88,8.88,0,1,0,8.88,8.88A8.89,8.89,0,0,0,261.3,149.5Z"/><path class="cls-1" d="M282.25,168.26a9.88,9.88,0,1,1,9.88-9.88A9.89,9.89,0,0,1,282.25,168.26Zm0-18.76a8.88,8.88,0,1,0,8.88,8.88A8.89,8.89,0,0,0,282.25,149.5Z"/><path class="cls-1" d="M303.2,168.26a9.88,9.88,0,1,1,9.89-9.88A9.89,9.89,0,0,1,303.2,168.26Zm0-18.76a8.88,8.88,0,1,0,8.89,8.88A8.89,8.89,0,0,0,303.2,149.5Z"/><path class="cls-1" d="M324.16,168.26a9.88,9.88,0,1,1,9.88-9.88A9.9,9.9,0,0,1,324.16,168.26Zm0-18.76a8.88,8.88,0,1,0,8.88,8.88A8.89,8.89,0,0,0,324.16,149.5Z"/><path class="cls-1" d="M345.11,168.26a9.88,9.88,0,1,1,9.88-9.88A9.89,9.89,0,0,1,345.11,168.26Zm0-18.76a8.88,8.88,0,1,0,8.88,8.88A8.89,8.89,0,0,0,345.11,149.5Z"/><path class="cls-1" d="M366.06,168.26a9.88,9.88,0,1,1,9.88-9.88A9.89,9.89,0,0,1,366.06,168.26Zm0-18.76a8.88,8.88,0,1,0,8.88,8.88A8.89,8.89,0,0,0,366.06,149.5Z"/><path class="cls-1" d="M387,168.26a9.88,9.88,0,1,1,9.88-9.88A9.89,9.89,0,0,1,387,168.26Zm0-18.76a8.88,8.88,0,1,0,8.88,8.88A8.89,8.89,0,0,0,387,149.5Z"/><path class="cls-1" d="M408,168.26a9.88,9.88,0,1,1,9.88-9.88A9.89,9.89,0,0,1,408,168.26Zm0-18.76a8.88,8.88,0,1,0,8.88,8.88A8.89,8.89,0,0,0,408,149.5Z"/><path class="cls-1" d="M9.88,189.47a9.88,9.88,0,1,1,9.88-9.88A9.89,9.89,0,0,1,9.88,189.47Zm0-18.76a8.88,8.88,0,1,0,8.88,8.88A8.89,8.89,0,0,0,9.88,170.71Z"/><path class="cls-1" d="M30.83,189.47a9.88,9.88,0,1,1,9.88-9.88A9.89,9.89,0,0,1,30.83,189.47Zm0-18.76a8.88,8.88,0,1,0,8.88,8.88A8.9,8.9,0,0,0,30.83,170.71Z"/><path class="cls-1" d="M51.78,189.47a9.88,9.88,0,1,1,9.89-9.88A9.89,9.89,0,0,1,51.78,189.47Zm0-18.76a8.88,8.88,0,1,0,8.89,8.88A8.9,8.9,0,0,0,51.78,170.71Z"/><path class="cls-1" d="M72.74,189.47a9.88,9.88,0,1,1,9.88-9.88A9.9,9.9,0,0,1,72.74,189.47Zm0-18.76a8.88,8.88,0,1,0,8.88,8.88A8.9,8.9,0,0,0,72.74,170.71Z"/><path class="cls-1" d="M93.69,189.47a9.88,9.88,0,1,1,9.88-9.88A9.89,9.89,0,0,1,93.69,189.47Zm0-18.76a8.88,8.88,0,1,0,8.88,8.88A8.89,8.89,0,0,0,93.69,170.71Z"/><path class="cls-1" d="M114.64,189.47a9.88,9.88,0,1,1,9.88-9.88A9.89,9.89,0,0,1,114.64,189.47Zm0-18.76a8.88,8.88,0,1,0,8.88,8.88A8.89,8.89,0,0,0,114.64,170.71Z"/><path class="cls-1" d="M135.59,189.47a9.88,9.88,0,1,1,9.88-9.88A9.89,9.89,0,0,1,135.59,189.47Zm0-18.76a8.88,8.88,0,1,0,8.88,8.88A8.89,8.89,0,0,0,135.59,170.71Z"/><path class="cls-1" d="M156.54,189.47a9.88,9.88,0,1,1,9.88-9.88A9.89,9.89,0,0,1,156.54,189.47Zm0-18.76a8.88,8.88,0,1,0,8.88,8.88A8.9,8.9,0,0,0,156.54,170.71Z"/><path class="cls-1" d="M177.49,189.47a9.88,9.88,0,1,1,9.89-9.88A9.89,9.89,0,0,1,177.49,189.47Zm0-18.76a8.88,8.88,0,1,0,8.89,8.88A8.9,8.9,0,0,0,177.49,170.71Z"/><path class="cls-1" d="M198.45,189.47a9.88,9.88,0,1,1,9.88-9.88A9.9,9.9,0,0,1,198.45,189.47Zm0-18.76a8.88,8.88,0,1,0,8.88,8.88A8.9,8.9,0,0,0,198.45,170.71Z"/><path class="cls-1" d="M240.35,189.47a9.88,9.88,0,1,1,9.88-9.88A9.89,9.89,0,0,1,240.35,189.47Zm0-18.76a8.88,8.88,0,1,0,8.88,8.88A8.89,8.89,0,0,0,240.35,170.71Z"/><path class="cls-1" d="M282.25,189.47a9.88,9.88,0,1,1,9.88-9.88A9.89,9.89,0,0,1,282.25,189.47Zm0-18.76a8.88,8.88,0,1,0,8.88,8.88A8.89,8.89,0,0,0,282.25,170.71Z"/><path class="cls-1" d="M366.06,189.47a9.88,9.88,0,1,1,9.88-9.88A9.89,9.89,0,0,1,366.06,189.47Zm0-18.76a8.88,8.88,0,1,0,8.88,8.88A8.89,8.89,0,0,0,366.06,170.71Z"/><path class="cls-1" d="M387,189.47a9.88,9.88,0,1,1,9.88-9.88A9.89,9.89,0,0,1,387,189.47Zm0-18.76a8.88,8.88,0,1,0,8.88,8.88A8.89,8.89,0,0,0,387,170.71Z"/><path class="cls-1" d="M408,189.47a9.88,9.88,0,1,1,9.88-9.88A9.89,9.89,0,0,1,408,189.47Zm0-18.76a8.88,8.88,0,1,0,8.88,8.88A8.89,8.89,0,0,0,408,170.71Z"/><path class="cls-1" d="M9.88,210.69a9.89,9.89,0,1,1,9.88-9.88A9.89,9.89,0,0,1,9.88,210.69Zm0-18.77a8.89,8.89,0,1,0,8.88,8.89A8.89,8.89,0,0,0,9.88,191.92Z"/><path class="cls-1" d="M30.83,210.69a9.89,9.89,0,1,1,9.88-9.88A9.89,9.89,0,0,1,30.83,210.69Zm0-18.77a8.89,8.89,0,1,0,8.88,8.89A8.9,8.9,0,0,0,30.83,191.92Z"/><path class="cls-1" d="M51.78,210.69a9.89,9.89,0,1,1,9.89-9.88A9.9,9.9,0,0,1,51.78,210.69Zm0-18.77a8.89,8.89,0,1,0,8.89,8.89A8.9,8.9,0,0,0,51.78,191.92Z"/><path class="cls-1" d="M72.74,210.69a9.89,9.89,0,1,1,9.88-9.88A9.9,9.9,0,0,1,72.74,210.69Zm0-18.77a8.89,8.89,0,1,0,8.88,8.89A8.9,8.9,0,0,0,72.74,191.92Z"/><path class="cls-1" d="M114.64,210.69a9.89,9.89,0,1,1,9.88-9.88A9.89,9.89,0,0,1,114.64,210.69Zm0-18.77a8.89,8.89,0,1,0,8.88,8.89A8.89,8.89,0,0,0,114.64,191.92Z"/><path class="cls-1" d="M135.59,210.69a9.89,9.89,0,1,1,9.88-9.88A9.89,9.89,0,0,1,135.59,210.69Zm0-18.77a8.89,8.89,0,1,0,8.88,8.89A8.89,8.89,0,0,0,135.59,191.92Z"/><path class="cls-1" d="M261.3,210.69a9.89,9.89,0,1,1,9.88-9.88A9.89,9.89,0,0,1,261.3,210.69Zm0-18.77a8.89,8.89,0,1,0,8.88,8.89A8.89,8.89,0,0,0,261.3,191.92Z"/><path class="cls-1" d="M282.25,210.69a9.89,9.89,0,1,1,9.88-9.88A9.89,9.89,0,0,1,282.25,210.69Zm0-18.77a8.89,8.89,0,1,0,8.88,8.89A8.89,8.89,0,0,0,282.25,191.92Z"/><path class="cls-1" d="M9.88,231.9A9.88,9.88,0,1,1,19.76,222,9.89,9.89,0,0,1,9.88,231.9Zm0-18.76A8.88,8.88,0,1,0,18.76,222,8.89,8.89,0,0,0,9.88,213.14Z"/><path class="cls-1" d="M30.83,231.9A9.88,9.88,0,1,1,40.71,222,9.89,9.89,0,0,1,30.83,231.9Zm0-18.76A8.88,8.88,0,1,0,39.71,222,8.89,8.89,0,0,0,30.83,213.14Z"/><path class="cls-1" d="M51.78,231.9A9.88,9.88,0,1,1,61.67,222,9.89,9.89,0,0,1,51.78,231.9Zm0-18.76A8.88,8.88,0,1,0,60.67,222,8.89,8.89,0,0,0,51.78,213.14Z"/><path class="cls-1" d="M72.74,231.9A9.88,9.88,0,1,1,82.62,222,9.9,9.9,0,0,1,72.74,231.9Zm0-18.76A8.88,8.88,0,1,0,81.62,222,8.89,8.89,0,0,0,72.74,213.14Z"/><path class="cls-1" d="M114.64,231.9a9.88,9.88,0,1,1,9.88-9.88A9.89,9.89,0,0,1,114.64,231.9Zm0-18.76a8.88,8.88,0,1,0,8.88,8.88A8.89,8.89,0,0,0,114.64,213.14Z"/><path class="cls-1" d="M1330.87,19.76a9.88,9.88,0,1,1,9.88-9.88A9.9,9.9,0,0,1,1330.87,19.76Zm0-18.76a8.88,8.88,0,1,0,8.88,8.88A8.89,8.89,0,0,0,1330.87,1Z"/><path class="cls-1" d="M1289,19.76a9.88,9.88,0,1,1,9.88-9.88A9.89,9.89,0,0,1,1289,19.76ZM1289,1a8.88,8.88,0,1,0,8.88,8.88A8.89,8.89,0,0,0,1289,1Z"/><path class="cls-1" d="M1268,19.76a9.88,9.88,0,1,1,9.88-9.88A9.89,9.89,0,0,1,1268,19.76ZM1268,1a8.88,8.88,0,1,0,8.88,8.88A8.89,8.89,0,0,0,1268,1Z"/><path class="cls-1" d="M1247.06,19.76a9.88,9.88,0,1,1,9.88-9.88A9.89,9.89,0,0,1,1247.06,19.76Zm0-18.76a8.88,8.88,0,1,0,8.88,8.88A8.89,8.89,0,0,0,1247.06,1Z"/><path class="cls-1" d="M1226.11,19.76A9.88,9.88,0,1,1,1236,9.88,9.89,9.89,0,0,1,1226.11,19.76Zm0-18.76A8.88,8.88,0,1,0,1235,9.88,8.89,8.89,0,0,0,1226.11,1Z"/><path class="cls-1" d="M1205.16,19.76A9.88,9.88,0,1,1,1215,9.88,9.9,9.9,0,0,1,1205.16,19.76Zm0-18.76A8.88,8.88,0,1,0,1214,9.88,8.89,8.89,0,0,0,1205.16,1Z"/><path class="cls-1" d="M1184.2,19.76a9.88,9.88,0,1,1,9.89-9.88A9.89,9.89,0,0,1,1184.2,19.76Zm0-18.76a8.88,8.88,0,1,0,8.89,8.88A8.89,8.89,0,0,0,1184.2,1Z"/><path class="cls-1" d="M1163.25,19.76a9.88,9.88,0,1,1,9.88-9.88A9.89,9.89,0,0,1,1163.25,19.76Zm0-18.76a8.88,8.88,0,1,0,8.88,8.88A8.89,8.89,0,0,0,1163.25,1Z"/><path class="cls-1" d="M1121.35,19.76a9.88,9.88,0,1,1,9.88-9.88A9.89,9.89,0,0,1,1121.35,19.76Zm0-18.76a8.88,8.88,0,1,0,8.88,8.88A8.89,8.89,0,0,0,1121.35,1Z"/><path class="cls-1" d="M1037.54,19.76a9.88,9.88,0,1,1,9.88-9.88A9.89,9.89,0,0,1,1037.54,19.76Zm0-18.76a8.88,8.88,0,1,0,8.88,8.88A8.89,8.89,0,0,0,1037.54,1Z"/><path class="cls-1" d="M1016.59,19.76a9.88,9.88,0,1,1,9.88-9.88A9.89,9.89,0,0,1,1016.59,19.76Zm0-18.76a8.88,8.88,0,1,0,8.88,8.88A8.89,8.89,0,0,0,1016.59,1Z"/><path class="cls-1" d="M974.69,19.76a9.88,9.88,0,1,1,9.88-9.88A9.89,9.89,0,0,1,974.69,19.76Zm0-18.76a8.88,8.88,0,1,0,8.88,8.88A8.89,8.89,0,0,0,974.69,1Z"/><path class="cls-1" d="M953.74,19.76a9.88,9.88,0,1,1,9.88-9.88A9.9,9.9,0,0,1,953.74,19.76Zm0-18.76a8.88,8.88,0,1,0,8.88,8.88A8.89,8.89,0,0,0,953.74,1Z"/><path class="cls-1" d="M911.83,19.76a9.88,9.88,0,1,1,9.88-9.88A9.89,9.89,0,0,1,911.83,19.76Zm0-18.76a8.88,8.88,0,1,0,8.88,8.88A8.89,8.89,0,0,0,911.83,1Z"/><path class="cls-1" d="M890.88,19.76a9.88,9.88,0,1,1,9.88-9.88A9.89,9.89,0,0,1,890.88,19.76Zm0-18.76a8.88,8.88,0,1,0,8.88,8.88A8.89,8.89,0,0,0,890.88,1Z"/><path class="cls-1" d="M1330.87,41a9.89,9.89,0,1,1,9.88-9.88A9.9,9.9,0,0,1,1330.87,41Zm0-18.77a8.89,8.89,0,1,0,8.88,8.89A8.9,8.9,0,0,0,1330.87,22.21Z"/><path class="cls-1" d="M1309.91,41a9.89,9.89,0,1,1,9.89-9.88A9.89,9.89,0,0,1,1309.91,41Zm0-18.77a8.89,8.89,0,1,0,8.89,8.89A8.9,8.9,0,0,0,1309.91,22.21Z"/><path class="cls-1" d="M1289,41a9.89,9.89,0,1,1,9.88-9.88A9.89,9.89,0,0,1,1289,41Zm0-18.77a8.89,8.89,0,1,0,8.88,8.89A8.89,8.89,0,0,0,1289,22.21Z"/><path class="cls-1" d="M1268,41a9.89,9.89,0,1,1,9.88-9.88A9.89,9.89,0,0,1,1268,41Zm0-18.77a8.89,8.89,0,1,0,8.88,8.89A8.89,8.89,0,0,0,1268,22.21Z"/><path class="cls-1" d="M1247.06,41a9.89,9.89,0,1,1,9.88-9.88A9.89,9.89,0,0,1,1247.06,41Zm0-18.77a8.89,8.89,0,1,0,8.88,8.89A8.89,8.89,0,0,0,1247.06,22.21Z"/><path class="cls-1" d="M1226.11,41A9.89,9.89,0,1,1,1236,31.1,9.89,9.89,0,0,1,1226.11,41Zm0-18.77A8.89,8.89,0,1,0,1235,31.1,8.89,8.89,0,0,0,1226.11,22.21Z"/><path class="cls-1" d="M1205.16,41A9.89,9.89,0,1,1,1215,31.1,9.9,9.9,0,0,1,1205.16,41Zm0-18.77A8.89,8.89,0,1,0,1214,31.1,8.9,8.9,0,0,0,1205.16,22.21Z"/><path class="cls-1" d="M1184.2,41a9.89,9.89,0,1,1,9.89-9.88A9.9,9.9,0,0,1,1184.2,41Zm0-18.77a8.89,8.89,0,1,0,8.89,8.89A8.9,8.9,0,0,0,1184.2,22.21Z"/><path class="cls-1" d="M1163.25,41a9.89,9.89,0,1,1,9.88-9.88A9.89,9.89,0,0,1,1163.25,41Zm0-18.77a8.89,8.89,0,1,0,8.88,8.89A8.89,8.89,0,0,0,1163.25,22.21Z"/><path class="cls-1" d="M1142.3,41a9.89,9.89,0,1,1,9.88-9.88A9.89,9.89,0,0,1,1142.3,41Zm0-18.77a8.89,8.89,0,1,0,8.88,8.89A8.89,8.89,0,0,0,1142.3,22.21Z"/><path class="cls-1" d="M1121.35,41a9.89,9.89,0,1,1,9.88-9.88A9.89,9.89,0,0,1,1121.35,41Zm0-18.77a8.89,8.89,0,1,0,8.88,8.89A8.89,8.89,0,0,0,1121.35,22.21Z"/><path class="cls-1" d="M1079.45,41a9.89,9.89,0,1,1,9.88-9.88A9.9,9.9,0,0,1,1079.45,41Zm0-18.77a8.89,8.89,0,1,0,8.88,8.89A8.9,8.9,0,0,0,1079.45,22.21Z"/><path class="cls-1" d="M1058.49,41a9.89,9.89,0,1,1,9.89-9.88A9.9,9.9,0,0,1,1058.49,41Zm0-18.77a8.89,8.89,0,1,0,8.89,8.89A8.9,8.9,0,0,0,1058.49,22.21Z"/><path class="cls-1" d="M1037.54,41a9.89,9.89,0,1,1,9.88-9.88A9.89,9.89,0,0,1,1037.54,41Zm0-18.77a8.89,8.89,0,1,0,8.88,8.89A8.9,8.9,0,0,0,1037.54,22.21Z"/><path class="cls-1" d="M1016.59,41a9.89,9.89,0,1,1,9.88-9.88A9.89,9.89,0,0,1,1016.59,41Zm0-18.77a8.89,8.89,0,1,0,8.88,8.89A8.89,8.89,0,0,0,1016.59,22.21Z"/><path class="cls-1" d="M995.64,41a9.89,9.89,0,1,1,9.88-9.88A9.89,9.89,0,0,1,995.64,41Zm0-18.77a8.89,8.89,0,1,0,8.88,8.89A8.89,8.89,0,0,0,995.64,22.21Z"/><path class="cls-1" d="M1330.87,62.19a9.88,9.88,0,1,1,9.88-9.88A9.9,9.9,0,0,1,1330.87,62.19Zm0-18.76a8.88,8.88,0,1,0,8.88,8.88A8.89,8.89,0,0,0,1330.87,43.43Z"/><path class="cls-1" d="M1309.91,62.19a9.88,9.88,0,1,1,9.89-9.88A9.89,9.89,0,0,1,1309.91,62.19Zm0-18.76a8.88,8.88,0,1,0,8.89,8.88A8.89,8.89,0,0,0,1309.91,43.43Z"/><path class="cls-1" d="M1289,62.19a9.88,9.88,0,1,1,9.88-9.88A9.89,9.89,0,0,1,1289,62.19Zm0-18.76a8.88,8.88,0,1,0,8.88,8.88A8.89,8.89,0,0,0,1289,43.43Z"/><path class="cls-1" d="M1268,62.19a9.88,9.88,0,1,1,9.88-9.88A9.89,9.89,0,0,1,1268,62.19Zm0-18.76a8.88,8.88,0,1,0,8.88,8.88A8.89,8.89,0,0,0,1268,43.43Z"/><path class="cls-1" d="M1226.11,62.19a9.88,9.88,0,1,1,9.88-9.88A9.89,9.89,0,0,1,1226.11,62.19Zm0-18.76a8.88,8.88,0,1,0,8.88,8.88A8.89,8.89,0,0,0,1226.11,43.43Z"/><path class="cls-1" d="M1205.16,62.19a9.88,9.88,0,1,1,9.88-9.88A9.9,9.9,0,0,1,1205.16,62.19Zm0-18.76a8.88,8.88,0,1,0,8.88,8.88A8.89,8.89,0,0,0,1205.16,43.43Z"/><path class="cls-1" d="M1184.2,62.19a9.88,9.88,0,1,1,9.89-9.88A9.89,9.89,0,0,1,1184.2,62.19Zm0-18.76a8.88,8.88,0,1,0,8.89,8.88A8.89,8.89,0,0,0,1184.2,43.43Z"/><path class="cls-1" d="M1163.25,62.19a9.88,9.88,0,1,1,9.88-9.88A9.89,9.89,0,0,1,1163.25,62.19Zm0-18.76a8.88,8.88,0,1,0,8.88,8.88A8.89,8.89,0,0,0,1163.25,43.43Z"/><path class="cls-1" d="M1142.3,62.19a9.88,9.88,0,1,1,9.88-9.88A9.89,9.89,0,0,1,1142.3,62.19Zm0-18.76a8.88,8.88,0,1,0,8.88,8.88A8.89,8.89,0,0,0,1142.3,43.43Z"/><path class="cls-1" d="M1121.35,62.19a9.88,9.88,0,1,1,9.88-9.88A9.89,9.89,0,0,1,1121.35,62.19Zm0-18.76a8.88,8.88,0,1,0,8.88,8.88A8.89,8.89,0,0,0,1121.35,43.43Z"/><path class="cls-1" d="M1100.4,62.19a9.88,9.88,0,1,1,9.88-9.88A9.89,9.89,0,0,1,1100.4,62.19Zm0-18.76a8.88,8.88,0,1,0,8.88,8.88A8.89,8.89,0,0,0,1100.4,43.43Z"/><path class="cls-1" d="M1079.45,62.19a9.88,9.88,0,1,1,9.88-9.88A9.9,9.9,0,0,1,1079.45,62.19Zm0-18.76a8.88,8.88,0,1,0,8.88,8.88A8.89,8.89,0,0,0,1079.45,43.43Z"/><path class="cls-1" d="M1016.59,62.19a9.88,9.88,0,1,1,9.88-9.88A9.89,9.89,0,0,1,1016.59,62.19Zm0-18.76a8.88,8.88,0,1,0,8.88,8.88A8.89,8.89,0,0,0,1016.59,43.43Z"/><path class="cls-1" d="M1330.87,83.41a9.89,9.89,0,1,1,9.88-9.89A9.91,9.91,0,0,1,1330.87,83.41Zm0-18.77a8.89,8.89,0,1,0,8.88,8.88A8.9,8.9,0,0,0,1330.87,64.64Z"/><path class="cls-1" d="M1309.91,83.41a9.89,9.89,0,1,1,9.89-9.89A9.9,9.9,0,0,1,1309.91,83.41Zm0-18.77a8.89,8.89,0,1,0,8.89,8.88A8.9,8.9,0,0,0,1309.91,64.64Z"/><path class="cls-1" d="M1289,83.41a9.89,9.89,0,1,1,9.88-9.89A9.9,9.9,0,0,1,1289,83.41Zm0-18.77a8.89,8.89,0,1,0,8.88,8.88A8.89,8.89,0,0,0,1289,64.64Z"/><path class="cls-1" d="M1268,83.41a9.89,9.89,0,1,1,9.88-9.89A9.9,9.9,0,0,1,1268,83.41Zm0-18.77a8.89,8.89,0,1,0,8.88,8.88A8.89,8.89,0,0,0,1268,64.64Z"/><path class="cls-1" d="M1247.06,83.41a9.89,9.89,0,1,1,9.88-9.89A9.9,9.9,0,0,1,1247.06,83.41Zm0-18.77a8.89,8.89,0,1,0,8.88,8.88A8.89,8.89,0,0,0,1247.06,64.64Z"/><path class="cls-1" d="M1226.11,83.41a9.89,9.89,0,1,1,9.88-9.89A9.9,9.9,0,0,1,1226.11,83.41Zm0-18.77a8.89,8.89,0,1,0,8.88,8.88A8.89,8.89,0,0,0,1226.11,64.64Z"/><path class="cls-1" d="M1205.16,83.41a9.89,9.89,0,1,1,9.88-9.89A9.91,9.91,0,0,1,1205.16,83.41Zm0-18.77a8.89,8.89,0,1,0,8.88,8.88A8.9,8.9,0,0,0,1205.16,64.64Z"/><path class="cls-1" d="M1163.25,83.41a9.89,9.89,0,1,1,9.88-9.89A9.9,9.9,0,0,1,1163.25,83.41Zm0-18.77a8.89,8.89,0,1,0,8.88,8.88A8.89,8.89,0,0,0,1163.25,64.64Z"/><path class="cls-1" d="M1142.3,83.41a9.89,9.89,0,1,1,9.88-9.89A9.9,9.9,0,0,1,1142.3,83.41Zm0-18.77a8.89,8.89,0,1,0,8.88,8.88A8.89,8.89,0,0,0,1142.3,64.64Z"/><path class="cls-1" d="M1121.35,83.41a9.89,9.89,0,1,1,9.88-9.89A9.9,9.9,0,0,1,1121.35,83.41Zm0-18.77a8.89,8.89,0,1,0,8.88,8.88A8.89,8.89,0,0,0,1121.35,64.64Z"/><path class="cls-1" d="M1100.4,83.41a9.89,9.89,0,1,1,9.88-9.89A9.9,9.9,0,0,1,1100.4,83.41Zm0-18.77a8.89,8.89,0,1,0,8.88,8.88A8.89,8.89,0,0,0,1100.4,64.64Z"/><path class="cls-1" d="M1079.45,83.41a9.89,9.89,0,1,1,9.88-9.89A9.91,9.91,0,0,1,1079.45,83.41Zm0-18.77a8.89,8.89,0,1,0,8.88,8.88A8.9,8.9,0,0,0,1079.45,64.64Z"/><path class="cls-1" d="M1058.49,83.41a9.89,9.89,0,1,1,9.89-9.89A9.9,9.9,0,0,1,1058.49,83.41Zm0-18.77a8.89,8.89,0,1,0,8.89,8.88A8.9,8.9,0,0,0,1058.49,64.64Z"/><path class="cls-1" d="M1037.54,83.41a9.89,9.89,0,1,1,9.88-9.89A9.9,9.9,0,0,1,1037.54,83.41Zm0-18.77a8.89,8.89,0,1,0,8.88,8.88A8.9,8.9,0,0,0,1037.54,64.64Z"/><path class="cls-1" d="M1016.59,83.41a9.89,9.89,0,1,1,9.88-9.89A9.9,9.9,0,0,1,1016.59,83.41Zm0-18.77a8.89,8.89,0,1,0,8.88,8.88A8.89,8.89,0,0,0,1016.59,64.64Z"/><path class="cls-1" d="M1309.91,104.62a9.88,9.88,0,1,1,9.89-9.88A9.89,9.89,0,0,1,1309.91,104.62Zm0-18.76a8.88,8.88,0,1,0,8.89,8.88A8.89,8.89,0,0,0,1309.91,85.86Z"/><path class="cls-1" d="M1289,104.62a9.88,9.88,0,1,1,9.88-9.88A9.89,9.89,0,0,1,1289,104.62Zm0-18.76a8.88,8.88,0,1,0,8.88,8.88A8.89,8.89,0,0,0,1289,85.86Z"/><path class="cls-1" d="M1268,104.62a9.88,9.88,0,1,1,9.88-9.88A9.89,9.89,0,0,1,1268,104.62Zm0-18.76a8.88,8.88,0,1,0,8.88,8.88A8.89,8.89,0,0,0,1268,85.86Z"/><path class="cls-1" d="M1247.06,104.62a9.88,9.88,0,1,1,9.88-9.88A9.89,9.89,0,0,1,1247.06,104.62Zm0-18.76a8.88,8.88,0,1,0,8.88,8.88A8.89,8.89,0,0,0,1247.06,85.86Z"/><path class="cls-1" d="M1226.11,104.62a9.88,9.88,0,1,1,9.88-9.88A9.89,9.89,0,0,1,1226.11,104.62Zm0-18.76a8.88,8.88,0,1,0,8.88,8.88A8.89,8.89,0,0,0,1226.11,85.86Z"/><path class="cls-1" d="M1205.16,104.62a9.88,9.88,0,1,1,9.88-9.88A9.9,9.9,0,0,1,1205.16,104.62Zm0-18.76a8.88,8.88,0,1,0,8.88,8.88A8.89,8.89,0,0,0,1205.16,85.86Z"/><path class="cls-1" d="M1184.2,104.62a9.88,9.88,0,1,1,9.89-9.88A9.89,9.89,0,0,1,1184.2,104.62Zm0-18.76a8.88,8.88,0,1,0,8.89,8.88A8.89,8.89,0,0,0,1184.2,85.86Z"/><path class="cls-1" d="M1163.25,104.62a9.88,9.88,0,1,1,9.88-9.88A9.89,9.89,0,0,1,1163.25,104.62Zm0-18.76a8.88,8.88,0,1,0,8.88,8.88A8.89,8.89,0,0,0,1163.25,85.86Z"/><path class="cls-1" d="M1142.3,104.62a9.88,9.88,0,1,1,9.88-9.88A9.89,9.89,0,0,1,1142.3,104.62Zm0-18.76a8.88,8.88,0,1,0,8.88,8.88A8.89,8.89,0,0,0,1142.3,85.86Z"/><path class="cls-1" d="M1121.35,104.62a9.88,9.88,0,1,1,9.88-9.88A9.89,9.89,0,0,1,1121.35,104.62Zm0-18.76a8.88,8.88,0,1,0,8.88,8.88A8.89,8.89,0,0,0,1121.35,85.86Z"/><path class="cls-1" d="M1100.4,104.62a9.88,9.88,0,1,1,9.88-9.88A9.89,9.89,0,0,1,1100.4,104.62Zm0-18.76a8.88,8.88,0,1,0,8.88,8.88A8.89,8.89,0,0,0,1100.4,85.86Z"/><path class="cls-1" d="M1058.49,104.62a9.88,9.88,0,1,1,9.89-9.88A9.89,9.89,0,0,1,1058.49,104.62Zm0-18.76a8.88,8.88,0,1,0,8.89,8.88A8.89,8.89,0,0,0,1058.49,85.86Z"/><path class="cls-1" d="M1037.54,104.62a9.88,9.88,0,1,1,9.88-9.88A9.89,9.89,0,0,1,1037.54,104.62Zm0-18.76a8.88,8.88,0,1,0,8.88,8.88A8.89,8.89,0,0,0,1037.54,85.86Z"/><path class="cls-1" d="M1016.59,104.62a9.88,9.88,0,1,1,9.88-9.88A9.89,9.89,0,0,1,1016.59,104.62Zm0-18.76a8.88,8.88,0,1,0,8.88,8.88A8.89,8.89,0,0,0,1016.59,85.86Z"/><path class="cls-1" d="M995.64,104.62a9.88,9.88,0,1,1,9.88-9.88A9.89,9.89,0,0,1,995.64,104.62Zm0-18.76a8.88,8.88,0,1,0,8.88,8.88A8.89,8.89,0,0,0,995.64,85.86Z"/><path class="cls-1" d="M890.88,104.62a9.88,9.88,0,1,1,9.88-9.88A9.89,9.89,0,0,1,890.88,104.62Zm0-18.76a8.88,8.88,0,1,0,8.88,8.88A8.89,8.89,0,0,0,890.88,85.86Z"/><path class="cls-1" d="M1330.87,125.83a9.88,9.88,0,1,1,9.88-9.88A9.9,9.9,0,0,1,1330.87,125.83Zm0-18.76a8.88,8.88,0,1,0,8.88,8.88A8.89,8.89,0,0,0,1330.87,107.07Z"/><path class="cls-1" d="M1309.91,125.83a9.88,9.88,0,1,1,9.89-9.88A9.89,9.89,0,0,1,1309.91,125.83Zm0-18.76a8.88,8.88,0,1,0,8.89,8.88A8.89,8.89,0,0,0,1309.91,107.07Z"/><path class="cls-1" d="M1289,125.83a9.88,9.88,0,1,1,9.88-9.88A9.89,9.89,0,0,1,1289,125.83Zm0-18.76a8.88,8.88,0,1,0,8.88,8.88A8.89,8.89,0,0,0,1289,107.07Z"/><path class="cls-1" d="M1268,125.83a9.88,9.88,0,1,1,9.88-9.88A9.89,9.89,0,0,1,1268,125.83Zm0-18.76a8.88,8.88,0,1,0,8.88,8.88A8.89,8.89,0,0,0,1268,107.07Z"/><path class="cls-1" d="M1247.06,125.83a9.88,9.88,0,1,1,9.88-9.88A9.89,9.89,0,0,1,1247.06,125.83Zm0-18.76a8.88,8.88,0,1,0,8.88,8.88A8.89,8.89,0,0,0,1247.06,107.07Z"/><path class="cls-1" d="M1226.11,125.83A9.88,9.88,0,1,1,1236,116,9.89,9.89,0,0,1,1226.11,125.83Zm0-18.76A8.88,8.88,0,1,0,1235,116,8.89,8.89,0,0,0,1226.11,107.07Z"/><path class="cls-1" d="M1205.16,125.83A9.88,9.88,0,1,1,1215,116,9.9,9.9,0,0,1,1205.16,125.83Zm0-18.76A8.88,8.88,0,1,0,1214,116,8.89,8.89,0,0,0,1205.16,107.07Z"/><path class="cls-1" d="M1184.2,125.83a9.88,9.88,0,1,1,9.89-9.88A9.89,9.89,0,0,1,1184.2,125.83Zm0-18.76a8.88,8.88,0,1,0,8.89,8.88A8.89,8.89,0,0,0,1184.2,107.07Z"/><path class="cls-1" d="M1163.25,125.83a9.88,9.88,0,1,1,9.88-9.88A9.89,9.89,0,0,1,1163.25,125.83Zm0-18.76a8.88,8.88,0,1,0,8.88,8.88A8.89,8.89,0,0,0,1163.25,107.07Z"/><path class="cls-1" d="M1121.35,125.83a9.88,9.88,0,1,1,9.88-9.88A9.89,9.89,0,0,1,1121.35,125.83Zm0-18.76a8.88,8.88,0,1,0,8.88,8.88A8.89,8.89,0,0,0,1121.35,107.07Z"/><path class="cls-1" d="M1100.4,125.83a9.88,9.88,0,1,1,9.88-9.88A9.89,9.89,0,0,1,1100.4,125.83Zm0-18.76a8.88,8.88,0,1,0,8.88,8.88A8.89,8.89,0,0,0,1100.4,107.07Z"/><path class="cls-1" d="M1079.45,125.83a9.88,9.88,0,1,1,9.88-9.88A9.9,9.9,0,0,1,1079.45,125.83Zm0-18.76a8.88,8.88,0,1,0,8.88,8.88A8.89,8.89,0,0,0,1079.45,107.07Z"/><path class="cls-1" d="M1058.49,125.83a9.88,9.88,0,1,1,9.89-9.88A9.89,9.89,0,0,1,1058.49,125.83Zm0-18.76a8.88,8.88,0,1,0,8.89,8.88A8.89,8.89,0,0,0,1058.49,107.07Z"/><path class="cls-1" d="M1037.54,125.83a9.88,9.88,0,1,1,9.88-9.88A9.89,9.89,0,0,1,1037.54,125.83Zm0-18.76a8.88,8.88,0,1,0,8.88,8.88A8.89,8.89,0,0,0,1037.54,107.07Z"/><path class="cls-1" d="M1016.59,125.83a9.88,9.88,0,1,1,9.88-9.88A9.89,9.89,0,0,1,1016.59,125.83Zm0-18.76a8.88,8.88,0,1,0,8.88,8.88A8.89,8.89,0,0,0,1016.59,107.07Z"/><path class="cls-1" d="M995.64,125.83a9.88,9.88,0,1,1,9.88-9.88A9.89,9.89,0,0,1,995.64,125.83Zm0-18.76a8.88,8.88,0,1,0,8.88,8.88A8.89,8.89,0,0,0,995.64,107.07Z"/><path class="cls-1" d="M1330.87,147.05a9.89,9.89,0,1,1,9.88-9.88A9.9,9.9,0,0,1,1330.87,147.05Zm0-18.77a8.89,8.89,0,1,0,8.88,8.89A8.9,8.9,0,0,0,1330.87,128.28Z"/><path class="cls-1" d="M1309.91,147.05a9.89,9.89,0,1,1,9.89-9.88A9.89,9.89,0,0,1,1309.91,147.05Zm0-18.77a8.89,8.89,0,1,0,8.89,8.89A8.9,8.9,0,0,0,1309.91,128.28Z"/><path class="cls-1" d="M1289,147.05a9.89,9.89,0,1,1,9.88-9.88A9.89,9.89,0,0,1,1289,147.05Zm0-18.77a8.89,8.89,0,1,0,8.88,8.89A8.89,8.89,0,0,0,1289,128.28Z"/><path class="cls-1" d="M1268,147.05a9.89,9.89,0,1,1,9.88-9.88A9.89,9.89,0,0,1,1268,147.05Zm0-18.77a8.89,8.89,0,1,0,8.88,8.89A8.89,8.89,0,0,0,1268,128.28Z"/><path class="cls-1" d="M1247.06,147.05a9.89,9.89,0,1,1,9.88-9.88A9.89,9.89,0,0,1,1247.06,147.05Zm0-18.77a8.89,8.89,0,1,0,8.88,8.89A8.89,8.89,0,0,0,1247.06,128.28Z"/><path class="cls-1" d="M1205.16,147.05a9.89,9.89,0,1,1,9.88-9.88A9.9,9.9,0,0,1,1205.16,147.05Zm0-18.77a8.89,8.89,0,1,0,8.88,8.89A8.9,8.9,0,0,0,1205.16,128.28Z"/><path class="cls-1" d="M1184.2,147.05a9.89,9.89,0,1,1,9.89-9.88A9.9,9.9,0,0,1,1184.2,147.05Zm0-18.77a8.89,8.89,0,1,0,8.89,8.89A8.9,8.9,0,0,0,1184.2,128.28Z"/><path class="cls-1" d="M1163.25,147.05a9.89,9.89,0,1,1,9.88-9.88A9.89,9.89,0,0,1,1163.25,147.05Zm0-18.77a8.89,8.89,0,1,0,8.88,8.89A8.89,8.89,0,0,0,1163.25,128.28Z"/><path class="cls-1" d="M1142.3,147.05a9.89,9.89,0,1,1,9.88-9.88A9.89,9.89,0,0,1,1142.3,147.05Zm0-18.77a8.89,8.89,0,1,0,8.88,8.89A8.89,8.89,0,0,0,1142.3,128.28Z"/><path class="cls-1" d="M1121.35,147.05a9.89,9.89,0,1,1,9.88-9.88A9.89,9.89,0,0,1,1121.35,147.05Zm0-18.77a8.89,8.89,0,1,0,8.88,8.89A8.89,8.89,0,0,0,1121.35,128.28Z"/><path class="cls-1" d="M1100.4,147.05a9.89,9.89,0,1,1,9.88-9.88A9.89,9.89,0,0,1,1100.4,147.05Zm0-18.77a8.89,8.89,0,1,0,8.88,8.89A8.89,8.89,0,0,0,1100.4,128.28Z"/><path class="cls-1" d="M1037.54,147.05a9.89,9.89,0,1,1,9.88-9.88A9.89,9.89,0,0,1,1037.54,147.05Zm0-18.77a8.89,8.89,0,1,0,8.88,8.89A8.9,8.9,0,0,0,1037.54,128.28Z"/><path class="cls-1" d="M1016.59,147.05a9.89,9.89,0,1,1,9.88-9.88A9.89,9.89,0,0,1,1016.59,147.05Zm0-18.77a8.89,8.89,0,1,0,8.88,8.89A8.89,8.89,0,0,0,1016.59,128.28Z"/><path class="cls-1" d="M974.69,147.05a9.89,9.89,0,1,1,9.88-9.88A9.89,9.89,0,0,1,974.69,147.05Zm0-18.77a8.89,8.89,0,1,0,8.88,8.89A8.89,8.89,0,0,0,974.69,128.28Z"/><path class="cls-1" d="M932.78,147.05a9.89,9.89,0,1,1,9.89-9.88A9.9,9.9,0,0,1,932.78,147.05Zm0-18.77a8.89,8.89,0,1,0,8.89,8.89A8.9,8.9,0,0,0,932.78,128.28Z"/><path class="cls-1" d="M1330.87,168.26a9.88,9.88,0,1,1,9.88-9.88A9.9,9.9,0,0,1,1330.87,168.26Zm0-18.76a8.88,8.88,0,1,0,8.88,8.88A8.89,8.89,0,0,0,1330.87,149.5Z"/><path class="cls-1" d="M1289,168.26a9.88,9.88,0,1,1,9.88-9.88A9.89,9.89,0,0,1,1289,168.26Zm0-18.76a8.88,8.88,0,1,0,8.88,8.88A8.89,8.89,0,0,0,1289,149.5Z"/><path class="cls-1" d="M1268,168.26a9.88,9.88,0,1,1,9.88-9.88A9.89,9.89,0,0,1,1268,168.26Zm0-18.76a8.88,8.88,0,1,0,8.88,8.88A8.89,8.89,0,0,0,1268,149.5Z"/><path class="cls-1" d="M1247.06,168.26a9.88,9.88,0,1,1,9.88-9.88A9.89,9.89,0,0,1,1247.06,168.26Zm0-18.76a8.88,8.88,0,1,0,8.88,8.88A8.89,8.89,0,0,0,1247.06,149.5Z"/><path class="cls-1" d="M1226.11,168.26a9.88,9.88,0,1,1,9.88-9.88A9.89,9.89,0,0,1,1226.11,168.26Zm0-18.76a8.88,8.88,0,1,0,8.88,8.88A8.89,8.89,0,0,0,1226.11,149.5Z"/><path class="cls-1" d="M1205.16,168.26a9.88,9.88,0,1,1,9.88-9.88A9.9,9.9,0,0,1,1205.16,168.26Zm0-18.76a8.88,8.88,0,1,0,8.88,8.88A8.89,8.89,0,0,0,1205.16,149.5Z"/><path class="cls-1" d="M1184.2,168.26a9.88,9.88,0,1,1,9.89-9.88A9.89,9.89,0,0,1,1184.2,168.26Zm0-18.76a8.88,8.88,0,1,0,8.89,8.88A8.89,8.89,0,0,0,1184.2,149.5Z"/><path class="cls-1" d="M1163.25,168.26a9.88,9.88,0,1,1,9.88-9.88A9.89,9.89,0,0,1,1163.25,168.26Zm0-18.76a8.88,8.88,0,1,0,8.88,8.88A8.89,8.89,0,0,0,1163.25,149.5Z"/><path class="cls-1" d="M1121.35,168.26a9.88,9.88,0,1,1,9.88-9.88A9.89,9.89,0,0,1,1121.35,168.26Zm0-18.76a8.88,8.88,0,1,0,8.88,8.88A8.89,8.89,0,0,0,1121.35,149.5Z"/><path class="cls-1" d="M1100.4,168.26a9.88,9.88,0,1,1,9.88-9.88A9.89,9.89,0,0,1,1100.4,168.26Zm0-18.76a8.88,8.88,0,1,0,8.88,8.88A8.89,8.89,0,0,0,1100.4,149.5Z"/><path class="cls-1" d="M1079.45,168.26a9.88,9.88,0,1,1,9.88-9.88A9.9,9.9,0,0,1,1079.45,168.26Zm0-18.76a8.88,8.88,0,1,0,8.88,8.88A8.89,8.89,0,0,0,1079.45,149.5Z"/><path class="cls-1" d="M1058.49,168.26a9.88,9.88,0,1,1,9.89-9.88A9.89,9.89,0,0,1,1058.49,168.26Zm0-18.76a8.88,8.88,0,1,0,8.89,8.88A8.89,8.89,0,0,0,1058.49,149.5Z"/><path class="cls-1" d="M1037.54,168.26a9.88,9.88,0,1,1,9.88-9.88A9.89,9.89,0,0,1,1037.54,168.26Zm0-18.76a8.88,8.88,0,1,0,8.88,8.88A8.89,8.89,0,0,0,1037.54,149.5Z"/><path class="cls-1" d="M1016.59,168.26a9.88,9.88,0,1,1,9.88-9.88A9.89,9.89,0,0,1,1016.59,168.26Zm0-18.76a8.88,8.88,0,1,0,8.88,8.88A8.89,8.89,0,0,0,1016.59,149.5Z"/><path class="cls-1" d="M995.64,168.26a9.88,9.88,0,1,1,9.88-9.88A9.89,9.89,0,0,1,995.64,168.26Zm0-18.76a8.88,8.88,0,1,0,8.88,8.88A8.89,8.89,0,0,0,995.64,149.5Z"/><path class="cls-1" d="M974.69,168.26a9.88,9.88,0,1,1,9.88-9.88A9.89,9.89,0,0,1,974.69,168.26Zm0-18.76a8.88,8.88,0,1,0,8.88,8.88A8.89,8.89,0,0,0,974.69,149.5Z"/><path class="cls-1" d="M953.74,168.26a9.88,9.88,0,1,1,9.88-9.88A9.9,9.9,0,0,1,953.74,168.26Zm0-18.76a8.88,8.88,0,1,0,8.88,8.88A8.89,8.89,0,0,0,953.74,149.5Z"/><path class="cls-1" d="M932.78,168.26a9.88,9.88,0,1,1,9.89-9.88A9.89,9.89,0,0,1,932.78,168.26Zm0-18.76a8.88,8.88,0,1,0,8.89,8.88A8.89,8.89,0,0,0,932.78,149.5Z"/><path class="cls-1" d="M1330.87,189.47a9.88,9.88,0,1,1,9.88-9.88A9.9,9.9,0,0,1,1330.87,189.47Zm0-18.76a8.88,8.88,0,1,0,8.88,8.88A8.9,8.9,0,0,0,1330.87,170.71Z"/><path class="cls-1" d="M1309.91,189.47a9.88,9.88,0,1,1,9.89-9.88A9.89,9.89,0,0,1,1309.91,189.47Zm0-18.76a8.88,8.88,0,1,0,8.89,8.88A8.9,8.9,0,0,0,1309.91,170.71Z"/><path class="cls-1" d="M1289,189.47a9.88,9.88,0,1,1,9.88-9.88A9.89,9.89,0,0,1,1289,189.47Zm0-18.76a8.88,8.88,0,1,0,8.88,8.88A8.89,8.89,0,0,0,1289,170.71Z"/><path class="cls-1" d="M1268,189.47a9.88,9.88,0,1,1,9.88-9.88A9.89,9.89,0,0,1,1268,189.47Zm0-18.76a8.88,8.88,0,1,0,8.88,8.88A8.89,8.89,0,0,0,1268,170.71Z"/><path class="cls-1" d="M1247.06,189.47a9.88,9.88,0,1,1,9.88-9.88A9.89,9.89,0,0,1,1247.06,189.47Zm0-18.76a8.88,8.88,0,1,0,8.88,8.88A8.89,8.89,0,0,0,1247.06,170.71Z"/><path class="cls-1" d="M1226.11,189.47a9.88,9.88,0,1,1,9.88-9.88A9.89,9.89,0,0,1,1226.11,189.47Zm0-18.76a8.88,8.88,0,1,0,8.88,8.88A8.89,8.89,0,0,0,1226.11,170.71Z"/><path class="cls-1" d="M1205.16,189.47a9.88,9.88,0,1,1,9.88-9.88A9.9,9.9,0,0,1,1205.16,189.47Zm0-18.76a8.88,8.88,0,1,0,8.88,8.88A8.9,8.9,0,0,0,1205.16,170.71Z"/><path class="cls-1" d="M1184.2,189.47a9.88,9.88,0,1,1,9.89-9.88A9.89,9.89,0,0,1,1184.2,189.47Zm0-18.76a8.88,8.88,0,1,0,8.89,8.88A8.9,8.9,0,0,0,1184.2,170.71Z"/><path class="cls-1" d="M1163.25,189.47a9.88,9.88,0,1,1,9.88-9.88A9.89,9.89,0,0,1,1163.25,189.47Zm0-18.76a8.88,8.88,0,1,0,8.88,8.88A8.89,8.89,0,0,0,1163.25,170.71Z"/><path class="cls-1" d="M1142.3,189.47a9.88,9.88,0,1,1,9.88-9.88A9.89,9.89,0,0,1,1142.3,189.47Zm0-18.76a8.88,8.88,0,1,0,8.88,8.88A8.89,8.89,0,0,0,1142.3,170.71Z"/><path class="cls-1" d="M1100.4,189.47a9.88,9.88,0,1,1,9.88-9.88A9.89,9.89,0,0,1,1100.4,189.47Zm0-18.76a8.88,8.88,0,1,0,8.88,8.88A8.89,8.89,0,0,0,1100.4,170.71Z"/><path class="cls-1" d="M1058.49,189.47a9.88,9.88,0,1,1,9.89-9.88A9.89,9.89,0,0,1,1058.49,189.47Zm0-18.76a8.88,8.88,0,1,0,8.89,8.88A8.9,8.9,0,0,0,1058.49,170.71Z"/><path class="cls-1" d="M974.69,189.47a9.88,9.88,0,1,1,9.88-9.88A9.89,9.89,0,0,1,974.69,189.47Zm0-18.76a8.88,8.88,0,1,0,8.88,8.88A8.89,8.89,0,0,0,974.69,170.71Z"/><path class="cls-1" d="M953.74,189.47a9.88,9.88,0,1,1,9.88-9.88A9.9,9.9,0,0,1,953.74,189.47Zm0-18.76a8.88,8.88,0,1,0,8.88,8.88A8.9,8.9,0,0,0,953.74,170.71Z"/><path class="cls-1" d="M932.78,189.47a9.88,9.88,0,1,1,9.89-9.88A9.89,9.89,0,0,1,932.78,189.47Zm0-18.76a8.88,8.88,0,1,0,8.89,8.88A8.9,8.9,0,0,0,932.78,170.71Z"/><path class="cls-1" d="M1330.87,210.69a9.89,9.89,0,1,1,9.88-9.88A9.9,9.9,0,0,1,1330.87,210.69Zm0-18.77a8.89,8.89,0,1,0,8.88,8.89A8.9,8.9,0,0,0,1330.87,191.92Z"/><path class="cls-1" d="M1309.91,210.69a9.89,9.89,0,1,1,9.89-9.88A9.89,9.89,0,0,1,1309.91,210.69Zm0-18.77a8.89,8.89,0,1,0,8.89,8.89A8.9,8.9,0,0,0,1309.91,191.92Z"/><path class="cls-1" d="M1289,210.69a9.89,9.89,0,1,1,9.88-9.88A9.89,9.89,0,0,1,1289,210.69Zm0-18.77a8.89,8.89,0,1,0,8.88,8.89A8.89,8.89,0,0,0,1289,191.92Z"/><path class="cls-1" d="M1268,210.69a9.89,9.89,0,1,1,9.88-9.88A9.89,9.89,0,0,1,1268,210.69Zm0-18.77a8.89,8.89,0,1,0,8.88,8.89A8.89,8.89,0,0,0,1268,191.92Z"/><path class="cls-1" d="M1226.11,210.69a9.89,9.89,0,1,1,9.88-9.88A9.89,9.89,0,0,1,1226.11,210.69Zm0-18.77a8.89,8.89,0,1,0,8.88,8.89A8.89,8.89,0,0,0,1226.11,191.92Z"/><path class="cls-1" d="M1205.16,210.69a9.89,9.89,0,1,1,9.88-9.88A9.9,9.9,0,0,1,1205.16,210.69Zm0-18.77a8.89,8.89,0,1,0,8.88,8.89A8.9,8.9,0,0,0,1205.16,191.92Z"/><path class="cls-1" d="M1079.45,210.69a9.89,9.89,0,1,1,9.88-9.88A9.9,9.9,0,0,1,1079.45,210.69Zm0-18.77a8.89,8.89,0,1,0,8.88,8.89A8.9,8.9,0,0,0,1079.45,191.92Z"/><path class="cls-1" d="M1058.49,210.69a9.89,9.89,0,1,1,9.89-9.88A9.9,9.9,0,0,1,1058.49,210.69Zm0-18.77a8.89,8.89,0,1,0,8.89,8.89A8.9,8.9,0,0,0,1058.49,191.92Z"/><path class="cls-1" d="M1330.87,231.9a9.88,9.88,0,1,1,9.88-9.88A9.9,9.9,0,0,1,1330.87,231.9Zm0-18.76a8.88,8.88,0,1,0,8.88,8.88A8.89,8.89,0,0,0,1330.87,213.14Z"/><path class="cls-1" d="M1309.91,231.9a9.88,9.88,0,1,1,9.89-9.88A9.89,9.89,0,0,1,1309.91,231.9Zm0-18.76a8.88,8.88,0,1,0,8.89,8.88A8.89,8.89,0,0,0,1309.91,213.14Z"/><path class="cls-1" d="M1289,231.9a9.88,9.88,0,1,1,9.88-9.88A9.89,9.89,0,0,1,1289,231.9Zm0-18.76a8.88,8.88,0,1,0,8.88,8.88A8.89,8.89,0,0,0,1289,213.14Z"/><path class="cls-1" d="M1268,231.9a9.88,9.88,0,1,1,9.88-9.88A9.89,9.89,0,0,1,1268,231.9Zm0-18.76a8.88,8.88,0,1,0,8.88,8.88A8.89,8.89,0,0,0,1268,213.14Z"/><path class="cls-1" d="M1226.11,231.9A9.88,9.88,0,1,1,1236,222,9.89,9.89,0,0,1,1226.11,231.9Zm0-18.76A8.88,8.88,0,1,0,1235,222,8.89,8.89,0,0,0,1226.11,213.14Z"/></svg>