<svg id="Capa_1" data-name="Capa 1" xmlns="http://www.w3.org/2000/svg" viewBox="0 0 151.86 61.01"><defs><style>.cls-1{fill:#fff;}</style></defs><path class="cls-1" d="M74.18,31.29h3.56v3.37a2.49,2.49,0,0,1-.58.46,3.55,3.55,0,0,1-1,.4,6.33,6.33,0,0,1-1.65.17A4.08,4.08,0,0,1,72.1,35a4.34,4.34,0,0,1-1.53-2,8.64,8.64,0,0,1-.53-3.2v-1.2a9.62,9.62,0,0,1,.46-3.18,4.07,4.07,0,0,1,1.37-2,3.74,3.74,0,0,1,2.3-.69,4,4,0,0,1,1.92.41,2.87,2.87,0,0,1,1.16,1.1,4.57,4.57,0,0,1,.54,1.61h3a7.16,7.16,0,0,0-1-2.9,5.31,5.31,0,0,0-2.18-2,7.88,7.88,0,0,0-3.57-.72,7.28,7.28,0,0,0-3.84,1,6.45,6.45,0,0,0-2.48,2.86,10.66,10.66,0,0,0-.87,4.52v1.18a10,10,0,0,0,.94,4.52,6.76,6.76,0,0,0,2.63,2.86,7.58,7.58,0,0,0,3.88,1,10.52,10.52,0,0,0,3.22-.42,7.07,7.07,0,0,0,2.08-1,6.59,6.59,0,0,0,1.16-1.06V29H74.18Z"/><path class="cls-1" d="M93.28,25.55a6.18,6.18,0,0,0-6.12,0,5.73,5.73,0,0,0-2.1,2.33,7.64,7.64,0,0,0-.76,3.52v.49a6.72,6.72,0,0,0,.75,3.18,5.74,5.74,0,0,0,2.15,2.25,6.48,6.48,0,0,0,3.33.83,5.93,5.93,0,0,0,3.14-.75,5.69,5.69,0,0,0,1.84-1.67L94,34.2a4,4,0,0,1-1.39,1.17,4.09,4.09,0,0,1-1.85.41,3.22,3.22,0,0,1-3-1.89,4.36,4.36,0,0,1-.38-1.51h8.44V31.1a8.32,8.32,0,0,0-.61-3.31A4.9,4.9,0,0,0,93.28,25.55Zm-.48,4.69H87.34a5.8,5.8,0,0,1,.26-1.09,3.22,3.22,0,0,1,1-1.49,2.39,2.39,0,0,1,1.59-.53,2.53,2.53,0,0,1,1.51.4,2.46,2.46,0,0,1,.84,1.07A4.12,4.12,0,0,1,92.8,30Z"/><path class="cls-1" d="M107.72,25.22a4.82,4.82,0,0,0-5.94,1.29l-.1-1.52H98.89V37.93h3V28.75a2.74,2.74,0,0,1,.29-.46,2.82,2.82,0,0,1,1-.82,2.75,2.75,0,0,1,1.31-.29,3.09,3.09,0,0,1,1.24.22,1.48,1.48,0,0,1,.76.74,3.32,3.32,0,0,1,.26,1.43v8.36h3V29.59a6.46,6.46,0,0,0-.52-2.84A3.19,3.19,0,0,0,107.72,25.22Z"/><path class="cls-1" d="M122,25.55a6.16,6.16,0,0,0-6.11,0,5.73,5.73,0,0,0-2.1,2.33,7.64,7.64,0,0,0-.77,3.52v.49a6.72,6.72,0,0,0,.75,3.18A5.76,5.76,0,0,0,116,37.34a6.42,6.42,0,0,0,3.32.83,5.93,5.93,0,0,0,3.14-.75,5.69,5.69,0,0,0,1.84-1.67L122.7,34.2a4,4,0,0,1-1.39,1.17,4.06,4.06,0,0,1-1.85.41,3.22,3.22,0,0,1-3-1.89,4.59,4.59,0,0,1-.38-1.51h8.45V31.1a8.5,8.5,0,0,0-.61-3.31A5,5,0,0,0,122,25.55Zm-.47,4.69H116.1a5.81,5.81,0,0,1,.25-1.09,3.3,3.3,0,0,1,1-1.49,2.39,2.39,0,0,1,1.59-.53,2.58,2.58,0,0,1,1.52.4,2.43,2.43,0,0,1,.83,1.07,4.37,4.37,0,0,1,.29,1.41Z"/><polygon class="cls-1" points="69.73 43.35 67.41 43.35 67.41 60.77 70.5 60.77 70.5 53.41 77.53 53.41 77.53 50.94 70.5 50.94 70.5 45.84 78.53 45.84 78.53 43.35 70.5 43.35 69.73 43.35"/><path class="cls-1" d="M87.11,47.59a3.11,3.11,0,0,0-2.15.76,4.09,4.09,0,0,0-.8,1l-.09-1.51H81.25V60.77h3V52c0-.07.06-.15.1-.22a2.33,2.33,0,0,1,1-1,3.33,3.33,0,0,1,1.63-.35c.2,0,.4,0,.6,0l.58.07,0-2.81a3.33,3.33,0,0,0-.47-.11A3.87,3.87,0,0,0,87.11,47.59Z"/><path class="cls-1" d="M92.59,42.86a1.67,1.67,0,0,0-1.24.45,1.57,1.57,0,0,0-.44,1.13,1.55,1.55,0,0,0,.44,1.12,1.93,1.93,0,0,0,2.48,0,1.52,1.52,0,0,0,.45-1.12,1.54,1.54,0,0,0-.45-1.13A1.69,1.69,0,0,0,92.59,42.86Z"/><rect class="cls-1" x="91.1" y="47.83" width="2.97" height="12.94"/><path class="cls-1" d="M106.65,48.39a6.18,6.18,0,0,0-6.12,0,5.73,5.73,0,0,0-2.1,2.33,7.64,7.64,0,0,0-.76,3.52v.49a6.72,6.72,0,0,0,.75,3.18,5.69,5.69,0,0,0,2.16,2.25,6.42,6.42,0,0,0,3.32.83,5.93,5.93,0,0,0,3.14-.75,5.8,5.8,0,0,0,1.84-1.67L107.32,57a4,4,0,0,1-1.39,1.17,4.09,4.09,0,0,1-1.85.4,3.18,3.18,0,0,1-3-1.89,4.25,4.25,0,0,1-.38-1.5h8.44V53.94a8.32,8.32,0,0,0-.61-3.31A4.9,4.9,0,0,0,106.65,48.39Zm-.48,4.69h-5.45A5.81,5.81,0,0,1,101,52a3.22,3.22,0,0,1,1-1.49,2.39,2.39,0,0,1,1.59-.53,2.53,2.53,0,0,1,1.51.4,2.4,2.4,0,0,1,.84,1.07,4.12,4.12,0,0,1,.28,1.41Z"/><path class="cls-1" d="M121.09,48.06a4.82,4.82,0,0,0-5.94,1.29l-.1-1.52h-2.79V60.77h3V51.59a2.74,2.74,0,0,1,.29-.46,2.82,2.82,0,0,1,1-.82,2.75,2.75,0,0,1,1.31-.3,3.08,3.08,0,0,1,1.24.23,1.44,1.44,0,0,1,.76.74,3.32,3.32,0,0,1,.26,1.43v8.36h3V52.43a6.46,6.46,0,0,0-.52-2.84A3.19,3.19,0,0,0,121.09,48.06Z"/><path class="cls-1" d="M134.78,49.05a4.64,4.64,0,0,0-.68-.65,4.16,4.16,0,0,0-2.62-.81,4.47,4.47,0,0,0-2.73.83A5.34,5.34,0,0,0,127,50.74a9,9,0,0,0-.61,3.45v.25a8.73,8.73,0,0,0,.61,3.37,5.53,5.53,0,0,0,1.75,2.34,4.39,4.39,0,0,0,2.71.86,4.19,4.19,0,0,0,2.65-.82,4.71,4.71,0,0,0,.81-.8l.14,1.38h2.69V42.4h-3Zm-1,9.1a2.75,2.75,0,0,1-1.6.43,2.42,2.42,0,0,1-1.66-.56,3.25,3.25,0,0,1-.91-1.49,7.18,7.18,0,0,1-.29-2.09v-.25a7.32,7.32,0,0,1,.29-2.11,3.09,3.09,0,0,1,.93-1.51,2.43,2.43,0,0,1,1.66-.56,2.92,2.92,0,0,1,1.26.26,2.36,2.36,0,0,1,.9.69,2.89,2.89,0,0,1,.39.61V57A2.85,2.85,0,0,1,133.81,58.15Z"/><path class="cls-1" d="M151.28,55.14a4,4,0,0,0-1.65-1.24,13.15,13.15,0,0,0-2.56-.79,8.79,8.79,0,0,1-1.6-.45,1.92,1.92,0,0,1-.8-.55,1.16,1.16,0,0,1-.24-.73,1.39,1.39,0,0,1,.24-.79,1.65,1.65,0,0,1,.7-.59,2.76,2.76,0,0,1,1.18-.22,2.28,2.28,0,0,1,1.71.58,1.87,1.87,0,0,1,.56,1.34h3a3.66,3.66,0,0,0-.63-2.1,4.27,4.27,0,0,0-1.8-1.47,6.63,6.63,0,0,0-2.8-.54,6.12,6.12,0,0,0-2.67.54,4.21,4.21,0,0,0-1.73,1.44,3.33,3.33,0,0,0-.61,1.94,2.89,2.89,0,0,0,.58,1.84,4.26,4.26,0,0,0,1.63,1.23,11.29,11.29,0,0,0,2.42.77,7.64,7.64,0,0,1,1.76.53,1.83,1.83,0,0,1,.81.62,1.36,1.36,0,0,1,.21.74,1.32,1.32,0,0,1-.27.82,1.77,1.77,0,0,1-.78.55,3.36,3.36,0,0,1-1.28.21,3.61,3.61,0,0,1-1.23-.21,2.2,2.2,0,0,1-1-.68A2,2,0,0,1,144,56.7h-2.86a3.76,3.76,0,0,0,.63,2,4.61,4.61,0,0,0,1.85,1.62,6.34,6.34,0,0,0,3,.64,7,7,0,0,0,2.78-.51,4.2,4.2,0,0,0,1.83-1.38,3.36,3.36,0,0,0,.65-2A3.15,3.15,0,0,0,151.28,55.14Z"/><circle class="cls-1" cx="12.39" cy="10.5" r="10.5"/><path class="cls-1" d="M24.08,26.11a.86.86,0,0,0-.23,0H1.09A1.09,1.09,0,0,0,0,27.18v32.4a1.09,1.09,0,0,0,1.09,1.09h19.3a1.09,1.09,0,0,0,1.09-1.09V45.94a1.38,1.38,0,0,0-1.38-1.38H13a.92.92,0,0,1-.72-1.48L24.53,27.33a.76.76,0,0,0-.44-1.22Z"/><circle class="cls-1" cx="42.7" cy="10.5" r="10.5"/><path class="cls-1" d="M31,26.11a.9.9,0,0,1,.23,0H54a1.09,1.09,0,0,1,1.09,1.09v32.4A1.09,1.09,0,0,1,54,60.67H34.71a1.09,1.09,0,0,1-1.1-1.09V45.94A1.38,1.38,0,0,1,35,44.56h7.1a.92.92,0,0,0,.73-1.48L30.56,27.33A.77.77,0,0,1,31,26.11Z"/></svg>