<svg xmlns="http://www.w3.org/2000/svg" width="273" height="225" viewBox="0 0 273 225" version="1.1">
	<path d="M 37.920 9.292 C 30.350 12.475, 25.718 16.199, 21.691 22.340 C 17.141 29.278, 16 33.040, 16 41.112 C 16 50.095, 18.976 57.991, 24.646 64.053 L 29 68.707 21.879 69.883 C 9.644 71.904, 11 62.534, 11 145.035 L 11 217 21.511 217 L 32.021 217 31.761 174.250 L 31.500 131.500 26.242 131.197 L 20.983 130.895 35.046 114.947 C 42.781 106.176, 49.243 99, 49.406 99 C 49.857 99, 77 129.922, 77 130.436 C 77 130.683, 75.088 131.023, 72.750 131.193 L 68.500 131.500 68.239 174.250 L 67.979 217 77.489 217 L 87 217 87 157 C 87 120.202, 87.364 97, 87.940 97 C 89.818 97, 102.993 102.112, 107.040 104.411 C 112.773 107.667, 119 113.771, 119 116.134 C 119 121.437, 126.514 129.443, 132.554 130.576 C 138.137 131.623, 144.944 130.280, 148.744 127.381 C 152.694 124.369, 155.991 119.409, 155.996 116.473 C 156.002 113.387, 158.399 110.594, 164.534 106.522 C 168.924 103.607, 184.182 97, 186.521 97 C 186.776 97, 187.100 123.888, 187.242 156.750 L 187.500 216.500 197.261 216.786 L 207.022 217.073 206.761 174.286 L 206.500 131.500 201.749 131.195 L 196.998 130.890 211.110 114.945 C 218.872 106.175, 225.331 99, 225.463 99 C 225.595 99, 232.061 106.177, 239.831 114.948 L 253.958 130.897 248.729 131.198 L 243.500 131.500 243.239 174.250 L 242.979 217 252.989 217 L 263 217 263 144.607 C 263 87.613, 262.734 72.113, 261.750 71.739 C 261.063 71.477, 257.257 70.686, 253.294 69.979 L 246.088 68.695 250.490 63.799 C 262.423 50.527, 261.724 29.912, 248.906 17.094 C 242.031 10.220, 235.275 7.512, 224.985 7.505 C 217.375 7.501, 215.760 7.849, 209.788 10.787 C 195.205 17.959, 187.544 33.863, 191.407 48.943 C 192.993 55.134, 199.104 65.719, 201.658 66.699 C 204.070 67.624, 203.068 69, 199.983 69 C 195.436 69, 178.463 72.877, 170.521 75.730 C 160.326 79.393, 149.199 85.195, 143.052 90.053 C 139.461 92.891, 137.286 93.997, 136.472 93.397 C 124.485 84.559, 115.962 79.852, 104.479 75.729 C 96.534 72.877, 79.562 69, 75.017 69 C 71.249 69, 71.266 68.271, 75.127 64.500 C 84.424 55.421, 86.917 38.724, 80.849 26.187 C 73.404 10.809, 53.212 2.862, 37.920 9.292" stroke="none" fill="black" fill-rule="evenodd"/>
</svg>